<svg id="Logo" xmlns="http://www.w3.org/2000/svg" viewBox="0 0 1342 684"><defs><style>.cls-1{fill:#c1c1c1;}.cls-2{fill:#777;}.cls-3{fill:#e8e6e6;}.cls-4{fill:#fff;}.cls-5{fill:#ef6423;}</style></defs><title>logo</title><g id="layer1"><g id="path11522"><path class="cls-1" d="M201.45,91.18v10c35.44,0,59.26,29.83,76.89,54.07L226.8,254.18,122.13,188.49l55.49-83.16a75.29,75.29,0,0,1,23.83-4.15v-10M396,97c22.56,2.16,34.15,13.87,49.91,37.53l22.85,40.19,5.2,9.15,8.87-5.66,2-1.25L440.2,256.39,341,256.6l10.68-5.83,7.95-4.35-3.54-8.34C340.05,200.35,322.52,168,304,142a302.44,302.44,0,0,0-38.72-44.72L396,97M141,279.49l46.11,83.72-13.56-8.12-9.46-5.66-4.72,10L118.5,445.61,95,445.2l-19.08-.34a75.86,75.86,0,0,1-35.57-20.38,104.75,104.75,0,0,1-21.84-32.84l45.31-92.42,4.2-8.57-8.37-4.6-12-6.56H141m386.57,1.66L581.38,389c-.35,8.12-6.18,18.89-15.93,29.28-14.4,15.33-34.11,26.46-46.88,26.46h-.22l-43.05-.47-53.72-99,106-64.16M369.23,458.28v14.28H518.61l.53-.05A111.93,111.93,0,0,0,554,463.2l-3.72,8.14C514.87,549,493.49,595.81,412.13,595.81H370.79v20.88L325.11,537.6l44.12-79.32m-329,3.91c11.59,6.69,23.73,11.72,33.67,11.72l64.61.14,32.32.07h87.84l-.27,123.25H156.31c-55.65-17.77-88-79-116.09-135.18M396.45,87l-160.11.31c17.43,10.42,40.44,33.74,59.49,60.47,21.27,29.86,38.29,64.19,51,94.21l-45.21,24.7,144.42-.32,67-119.3-35.59,22.71-23-40.5c-15.25-22.93-29.22-39.7-58-42.28Zm-195,4.18A86.61,86.61,0,0,0,171.15,97L108.1,191.49l122.56,76.92,59.4-114c-18.37-25.46-45.56-63.21-88.61-63.21ZM531.63,267,408.24,341.7l61.07,112.55,48.93.53h.33c28.72,0,74.58-39.65,72.78-68.17L531.63,267Zm-384.76,2.52H8.68L54.8,294.82,7.51,391.27c11.81,30.31,34.49,56,67.1,63.57l50.17.88,43.59-92.05,45.3,27.12-66.8-121.3ZM379.23,419.73l-65.61,118L380.79,654V605.81h31.34c103.56,0,118-72.47,168.07-174.83-15.7,18.9-37.39,29-62.11,31.58H379.23V419.73ZM12.58,429.66c33.81,64.17,68.3,155.23,142.21,177.71H268.06l.31-.42.31-142.83H170.82l-96.9-.21c-16.84,0-45.84-20.16-61.34-34.25Z"/></g></g><path class="cls-2" d="M369.14,153c21.65,0,43.32.54,64.94-.19,15-.5,27.26,4.65,37.79,14.41,4.56,4.22,9.19,5.33,15.1,5.35,30.18.14,60.37,1,90.56.83,8.44,0,11.93,3.75,12.42,11,.91,13.59,1.36,27.21,1.76,40.83.22,7.6-3.71,10.44-11.4,10.94Q529.13,239.5,478,244a18.43,18.43,0,0,0-10.84,5.38c-8.73,9.25-18.59,14.2-31.72,14.18-24.57,0-49.15.77-73.68,2-4.43.22-9.21,3.6-12.86,6.68-5.29,4.44-9.46,10.18-14.56,14.87-2.4,2.21-5.94,4.72-8.83,4.55-7.85-.44-10.69,4.24-13.48,10.11-22.58,47.47-45.45,94.81-67.78,142.4-3.73,8-8.6,9.79-16.49,8.12-2.09-.44-6.15.74-6.77,2.24-15.78,37.67-33,75.2-33.25,117-.1,15.41,3.16,31.33,7.66,46.17,7.18,23.67,24.48,38.8,47.26,48,3.16,1.27,7.21,3.43,8.31,6.2,3.41,8.56-1.65,14-10.76,11.75-44-10.72-81-44.23-87.38-96-5.16-41.75,5.73-80.4,21.75-118.17,2.81-6.63,5.6-13.27,8.63-19.8,2.87-6.2,5.57-11.5,2.55-19.35-1.89-4.91,1.07-12.45,3.48-18.13,20.9-49.38,42.28-98.56,63.13-147.95,1.65-3.91,1.56-9.33.38-13.52-5.68-20.17-7.83-40.46-2.27-60.84,6.89-25.28,23.21-37.58,49.68-37.94,23-.31,46-.06,68.94-.06Zm82.21,83.75,3.07-.11c.49-1.64,1.64-3.39,1.38-4.89a99.88,99.88,0,0,1,1.9-45.18c.52-1.84-2.35-4.64-3.65-7-2,1.66-5.49,3.17-5.67,5-1,10.26-1.89,20.63-1.43,30.9C447.26,222.63,449.8,229.67,451.35,236.76Z"/><path class="cls-3" d="M974.49,110.67c-6.1,0-10.67-4.27-10.86-10.15a10.72,10.72,0,0,1,3.18-7.6,10.47,10.47,0,0,1,7.35-3.42,10.29,10.29,0,0,1,7.15,3.15,11.18,11.18,0,0,1,3.37,7.81c0,6.25-3.71,10.07-9.89,10.21Z"/><path class="cls-4" d="M974.22,90A9.7,9.7,0,0,1,981,93a10.64,10.64,0,0,1,3.23,7.45c0,6-3.53,9.58-9.41,9.71h-.28c-5.82,0-10.18-4.06-10.36-9.66a10.18,10.18,0,0,1,3-7.24,10,10,0,0,1,7-3.28h.06m0-1h-.06c-5.77.05-11.21,5.74-11,11.55.19,6.19,5,10.63,11.35,10.63h.31c6.41-.15,10.37-4.23,10.38-10.71,0-6-5.25-11.47-11-11.47Z"/><path class="cls-3" d="M948.23,186.89a10.92,10.92,0,0,1-7.61-3.51,10.07,10.07,0,0,1-2.75-7.31,9.66,9.66,0,0,1,10-9.57h.5a10.41,10.41,0,0,1,10.27,10.85,9.52,9.52,0,0,1-10,9.54Z"/><path class="cls-4" d="M947.82,167h.48a9.94,9.94,0,0,1,9.8,10.33c-.16,5.42-4,9.06-9.47,9.06h-.38A10.44,10.44,0,0,1,941,183a9.54,9.54,0,0,1-2.62-6.95,9.18,9.18,0,0,1,9.45-9.09m0-1a10.17,10.17,0,0,0-10.44,10,11.16,11.16,0,0,0,10.83,11.35h.42c6,0,10.29-4.09,10.46-10A10.89,10.89,0,0,0,948.34,166Z"/><path class="cls-3" d="M794.25,199.61a10.31,10.31,0,0,1-10.42-10,9.81,9.81,0,0,1,2.69-7.23,10,10,0,0,1,7.27-2.93c5.87,0,10.64,4.44,10.72,9.82a10.14,10.14,0,0,1-3.11,7.1,10.27,10.27,0,0,1-7.15,3.23Z"/><path class="cls-4" d="M793.79,180h.06c5.53,0,10.09,4.21,10.16,9.33a9.67,9.67,0,0,1-3,6.74,9.65,9.65,0,0,1-16.72-6.43,9.33,9.33,0,0,1,2.55-6.86,9.46,9.46,0,0,1,6.91-2.78m0-1a10.13,10.13,0,0,0-10.46,10.67,10.77,10.77,0,0,0,10.92,10.48h0c5.54,0,10.83-5.33,10.76-10.83-.08-5.7-5-10.29-11.15-10.32Z"/><path class="cls-3" d="M791.35,300.71a9.08,9.08,0,0,1-6.45-2.77,11,11,0,0,1-3.16-7.81c0-5.85,4.06-9.78,10-9.78,5.76,0,9.46,4.13,9.5,10.43,0,5.92-3.12,9.34-9.13,9.9Z"/><path class="cls-4" d="M791.79,280.85h.07c5.38,0,8.89,3.93,8.93,9.93.05,7.1-4.69,9-8.67,9.4l-.77,0a8.57,8.57,0,0,1-6.09-2.62,10.52,10.52,0,0,1-3-7.46c0-5.55,3.86-9.28,9.55-9.28m0-1c-6.24,0-10.53,4.18-10.55,10.28,0,5.92,4.45,11.08,10.11,11.08a8.38,8.38,0,0,0,.86,0c5.91-.54,9.62-3.89,9.58-10.39s-3.95-10.89-9.92-10.93Z"/><path class="cls-3" d="M862.42,188.57c-5.33,0-10.64-5.31-10.72-10.72a9.75,9.75,0,0,1,2.88-6.87,10.15,10.15,0,0,1,7.15-3.08h.18a10.12,10.12,0,0,1,7.47,3.48,8.7,8.7,0,0,1,2.14,6.83c-.64,5-2.19,10.21-8.92,10.36Z"/><path class="cls-4" d="M861.74,167.4v1h.16a9.62,9.62,0,0,1,7.1,3.31,8.18,8.18,0,0,1,2,6.43c-.86,6.85-3.38,9.81-8.43,9.93h-.18c-5.07,0-10.13-5.07-10.21-10.23a9.24,9.24,0,0,1,2.73-6.51,9.68,9.68,0,0,1,6.8-2.93v-1m0,0a10.67,10.67,0,0,0-10.53,10.46c.08,5.63,5.54,11.21,11.21,11.21h.2c6.92-.16,8.72-5.38,9.4-10.8.73-5.81-4.23-10.76-10.09-10.87Z"/><path class="cls-3" d="M850.45,280.17a9.52,9.52,0,0,1-6.87-3,10.14,10.14,0,0,1-2.34-7.64c.5-6.46,3.62-9.78,9.29-9.86h.11a9.79,9.79,0,0,1,7,3.24,9.69,9.69,0,0,1,2.81,7.12c-.37,6.29-4.05,10.19-9.58,10.19Z"/><path class="cls-4" d="M850.64,260.13a9.27,9.27,0,0,1,6.63,3.08A9.17,9.17,0,0,1,860,270c-.36,6-3.84,9.72-9.08,9.72h-.4a9,9,0,0,1-6.52-2.88,9.65,9.65,0,0,1-2.21-7.26c.48-6.25,3.36-9.32,8.8-9.4h.1m0-1h-.12c-6.59.09-9.32,4.37-9.78,10.32-.49,6.4,3.64,11,9.69,11.22h.44c5.75,0,9.69-4.14,10.08-10.66.33-5.4-4.68-10.89-10.31-10.89Z"/><path class="cls-3" d="M905.82,141.45a12,12,0,0,1-8.65-3.64,8.77,8.77,0,0,1-2.41-6.56c.41-6.39,3.56-9.69,9.36-9.79h.19c5.53,0,10.46,4.53,10.56,9.69a10.7,10.7,0,0,1-3.1,7.62,8.3,8.3,0,0,1-5.88,2.68Z"/><path class="cls-4" d="M904.31,122c5.27,0,10,4.3,10.06,9.2a10.36,10.36,0,0,1-3,7.25,7.84,7.84,0,0,1-5.53,2.54h-.06a11.45,11.45,0,0,1-8.29-3.48,8.13,8.13,0,0,1-2.28-6.19c.39-6.09,3.38-9.22,8.87-9.32h.18m0-1h-.19c-6.69.12-9.48,4.39-9.86,10.26s5,10.66,11.56,10.73h.07c5,0,9.58-5.17,9.48-10.81-.1-5.45-5.23-10.18-11.06-10.18Z"/><path class="cls-3" d="M856.52,114.07a10.11,10.11,0,0,1-7.36-3.19,8.87,8.87,0,0,1-2.47-6.68c.39-6,3.75-9.62,9.47-10.24.31,0,.62,0,.92,0,5,0,8.77,4.62,8.86,11-.08,4-1.72,8.92-9.06,9.17Z"/><path class="cls-4" d="M857.08,94.41h0c4.76,0,8.28,4.41,8.36,10.46-.11,5.57-3,8.5-8.58,8.69h-.34a9.66,9.66,0,0,1-7-3,8.41,8.41,0,0,1-2.33-6.31c.26-4,2-9,9-9.77a8.62,8.62,0,0,1,.87,0m0-1c-.32,0-.65,0-1,0-6.18.67-9.52,4.69-9.91,10.71-.37,5.66,4.57,10.4,10.33,10.4h.37c6.61-.23,9.44-4.09,9.55-9.67-.09-6.75-4.07-11.48-9.36-11.48Z"/><path class="cls-3" d="M1035.75,283.4c-5.18-.58-8.15-4-8.35-9.71-.22-6.18,2.86-9.87,8.68-10.38a5.25,5.25,0,0,1,.56,0c4.72,0,9.68,5.17,9.82,10.24C1046.62,278.84,1041.92,283.18,1035.75,283.4Z"/><path class="cls-4" d="M1036.64,263.78h0c4.39,0,9.19,5,9.32,9.75.15,5-4.32,9.14-10.19,9.37-4.89-.56-7.68-3.83-7.87-9.22-.15-4.16,1.16-9.26,8.23-9.87l.51,0m0-1-.6,0c-6.39.56-9.36,4.69-9.14,10.9s3.74,9.64,8.83,10.19c6.72-.23,11.39-5,11.23-10.39s-5.26-10.73-10.32-10.73Z"/><path class="cls-3" d="M899.66,237.06c-.34,0-.7,0-1.07,0a9.15,9.15,0,0,1-6.51-3.1c-1.84-2.18-2.62-5.32-2.27-9.09a8.4,8.4,0,0,1,8.76-7.09,13.6,13.6,0,0,1,1.66.11,10.05,10.05,0,0,1,7,3.48,8.87,8.87,0,0,1,1.49,6.83C907.9,234.06,904.86,237.06,899.66,237.06Z"/><path class="cls-4" d="M898.57,218.24h0a14.77,14.77,0,0,1,1.6.1,9.59,9.59,0,0,1,6.64,3.29,8.36,8.36,0,0,1,1.39,6.46c-.75,5.62-3.63,8.47-8.54,8.47-.33,0-.68,0-1,0a8.67,8.67,0,0,1-6.17-2.93c-1.74-2.06-2.48-5.05-2.15-8.67.85-4.24,3.86-6.68,8.26-6.68m0-1a8.89,8.89,0,0,0-9.26,7.54c-.71,7.62,3.15,12.29,9.25,12.74.38,0,.75,0,1.1,0,6,0,8.79-3.79,9.54-9.34.87-6.45-3-10.13-8.91-10.87a14.72,14.72,0,0,0-1.72-.11Z"/><path class="cls-3" d="M812,148.75a12.44,12.44,0,0,1-9.19-3.92,7.62,7.62,0,0,1-2.09-5.91c.54-4.73,2-9.56,8.65-9.58a11.38,11.38,0,0,1,8.2,3.3,9.45,9.45,0,0,1,2.68,7c-.17,5.28-3.12,8.66-7.91,9.06Z"/><path class="cls-4" d="M809.39,128.84v1a10.87,10.87,0,0,1,7.82,3.15,8.94,8.94,0,0,1,2.54,6.67c-.16,5-2.93,8.2-7.42,8.58H812a11.91,11.91,0,0,1-8.82-3.75,7.1,7.1,0,0,1-2-5.52c.72-6.39,3.16-9.12,8.15-9.14l0-1m0,0h0c-6.82,0-8.55,4.89-9.14,10-.61,5.35,5,10.38,11.78,10.38h.39c4.67-.39,8.17-3.65,8.36-9.54.2-6.33-5-10.86-11.36-10.86Z"/><path class="cls-3" d="M756.46,122.82a8.85,8.85,0,0,1-6.32-2.86,10,10,0,0,1,6.93-17l.72,0c5.33.43,8.12,3.65,8.51,9.83-.66,6.19-3.77,9.59-9.25,10Z"/><path class="cls-4" d="M757.07,103.42h0l.68,0c5.09.41,7.65,3.36,8,9.27-.67,6-3.54,9.17-8.78,9.58l-.56,0a8.32,8.32,0,0,1-6-2.71,9.45,9.45,0,0,1,6.57-16.19m0-1a10.72,10.72,0,0,0-10.39,10.13c-.18,5.51,4.42,10.77,9.78,10.77l.63,0c6.28-.5,9.09-4.69,9.71-10.56-.37-5.83-2.86-9.79-9-10.29l-.76,0Z"/><path class="cls-3" d="M824.31,230.38h-.62c-5.39-.27-9.54-5.22-9.25-11,.22-4.51,5.21-8.46,10.68-8.46h.62c5.52.73,8.23,4,8,9.57C833.5,226.58,829.88,230.38,824.31,230.38Z"/><path class="cls-4" d="M825.12,211.37h.55c5.32.71,7.79,3.67,7.58,9.05-.24,5.83-3.66,9.45-8.94,9.45h-.6c-5.11-.26-9.05-5-8.77-10.51.2-4.26,5-8,10.18-8m0-1c-5.8,0-11,4.18-11.18,8.94-.3,6.12,4,11.27,9.72,11.56h.65c5.8,0,9.68-4,9.93-10.41.25-6.19-2.91-9.36-8.47-10.09Z"/><path class="cls-3" d="M747.09,169.32a3.44,3.44,0,0,1-.46,0c-5.24-.48-8.18-3.79-9.25-10.38.19-5.73,3.35-9.09,8.9-9.36l.57,0c4.86,0,7.75,3.15,9.12,9.89.36,1.81-.38,4-2,6C752,167.8,749.33,169.32,747.09,169.32Z"/><path class="cls-4" d="M746.85,150c4.58,0,7.32,3,8.63,9.49.33,1.64-.39,3.74-1.94,5.63-1.82,2.22-4.35,3.67-6.45,3.67l-.42,0c-4.94-.47-7.74-3.6-8.78-9.88.21-5.54,3.12-8.61,8.42-8.87l.54,0m0-1-.59,0c-5.75.28-9.18,3.72-9.38,9.94.92,5.62,3.35,10.21,9.7,10.8a4.36,4.36,0,0,0,.51,0c4.73,0,10.29-6,9.37-10.49-1.05-5.2-3.35-10.3-9.61-10.3Z"/><path class="cls-3" d="M723.54,283.44a10.24,10.24,0,0,1-7.5-3.32,7.13,7.13,0,0,1-2-5.54c.74-7.08,3.53-10.37,8.76-10.37,7.06,0,9.18,5.08,9.71,9.36-.6,6.49-3.19,9.53-8.41,9.85Z"/><path class="cls-4" d="M722.83,263.71l0,1c6.64,0,8.67,4.8,9.19,8.87-.59,6.24-3,9-7.94,9.34l-.56,0a9.73,9.73,0,0,1-7.13-3.16,6.65,6.65,0,0,1-1.84-5.15c.72-6.86,3.27-9.92,8.26-9.92v-1m0,0c-6.77,0-8.69,5.38-9.26,10.81-.52,5,4.51,9.42,10,9.42l.62,0c6.3-.39,8.37-4.64,8.88-10.36-.73-6-4-9.84-10.18-9.85Z"/><path class="cls-3" d="M770.94,256.18c-5.81-.2-9.16-3.69-9.19-9.58,0-5.7,3.09-9.19,8.57-9.56l.39,0a9.58,9.58,0,0,1,6.74,3.47,8.1,8.1,0,0,1,2.31,6.18C779.22,251.07,777.72,256.12,770.94,256.18Z"/><path class="cls-4" d="M770.71,237.52h0a9.11,9.11,0,0,1,6.37,3.3,7.68,7.68,0,0,1,2.19,5.79c-.78,6.32-3.28,9-8.3,9.07-5.52-.18-8.69-3.49-8.72-9.09,0-5.4,2.93-8.7,8.1-9.05l.36,0m0-1-.43,0c-6.17.42-9.06,4.64-9,10.06,0,5.89,3.35,9.87,9.68,10.08,6.79-.05,8.69-4.78,9.33-10,.6-4.85-4.77-10.21-9.55-10.21Z"/><path class="cls-3" d="M671.82,163a7.67,7.67,0,0,1-5.53-2.6,9.46,9.46,0,0,1-2.64-6.88c.24-4.22,1.83-9.25,8-9.25.24,0,.49,0,.75,0,5.77.36,8.36,4.16,8.9,13.06-.53.41-1.12.92-1.73,1.47-1.77,1.56-4,3.51-6.41,4A6.53,6.53,0,0,1,671.82,163Z"/><path class="cls-4" d="M671.64,144.77h0c.23,0,.47,0,.72,0,5.4.34,7.86,3.92,8.41,12.33-.48.39-1,.84-1.54,1.32-1.73,1.53-3.88,3.43-6.18,3.93a5.65,5.65,0,0,1-1.23.13,7.22,7.22,0,0,1-5.17-2.44,9,9,0,0,1-2.5-6.51c.23-4,1.72-8.78,7.49-8.78m0-1c-5.79,0-8.18,4.3-8.49,9.72-.28,5,3.91,10,8.67,10a7,7,0,0,0,1.44-.15c3.55-.77,6.5-4.3,8.54-5.75-.48-8.76-2.91-13.4-9.38-13.81-.27,0-.53,0-.78,0Z"/><path class="cls-3" d="M690.84,199.15q-.54,0-1.14-.06c-6-.55-9-3.63-8.88-9.15.09-5.35,4.23-9.22,9.84-9.22.24,0,.48,0,.72,0,5,.76,7.72,4.3,7.34,9.7C698.45,194.41,696.86,199.15,690.84,199.15Z"/><path class="cls-4" d="M690.66,180.22v1h.65c4.82.76,7.27,4,6.91,9.18-.26,3.76-1.75,8.24-7.38,8.24a10.23,10.23,0,0,1-1.09-.06c-5.68-.52-8.51-3.43-8.43-8.65.09-5.05,4-8.72,9.34-8.72v-1m0,0c-6,0-10.24,4.18-10.34,9.71-.1,6.25,3.69,9.14,9.34,9.66.41,0,.8.06,1.18.06,5.55,0,8-3.93,8.38-9.17.41-5.84-2.63-9.45-7.81-10.24-.25,0-.5,0-.75,0Z"/><path class="cls-3" d="M988.23,234.81a8.81,8.81,0,0,1-6.38-2.51,8.26,8.26,0,0,1-2-6.19c.13-2.93,1.09-9.75,7.22-9.75a10.47,10.47,0,0,1,1.71.16c2.52.46,4.78,2.83,6.59,4.72.64.66,1.24,1.29,1.79,1.77-.37,7.94-3.22,11.8-8.71,11.8Z"/><path class="cls-4" d="M987,216.86h0a8.54,8.54,0,0,1,1.62.16c2.36.43,4.56,2.72,6.32,4.57.58.6,1.13,1.17,1.64,1.63-.53,9.93-4.92,11.09-8.2,11.09h-.17a8.3,8.3,0,0,1-6-2.36,7.76,7.76,0,0,1-1.9-5.82c.12-2.79,1-9.27,6.72-9.27m0-1c-5.31,0-7.49,4.91-7.72,10.23-.26,5.85,3.67,9.14,8.91,9.22h.19c5.72,0,8.88-3.91,9.22-12.53-2.06-1.67-5.09-6.07-8.8-6.75a10.69,10.69,0,0,0-1.8-.17Z"/><path class="cls-3" d="M741.18,211.19l-.7,0c-6.17-.39-9.79-3.91-9.69-9.4.1-5.71,3.34-9.28,8.66-9.57h.65c4.7,0,7.25,2.87,8.24,9.31-.18.66-.33,1.35-.49,2.05C747,207.48,746.15,211.19,741.18,211.19Z"/><path class="cls-4" d="M740.1,192.69h0c4.44,0,6.76,2.63,7.73,8.78-.17.65-.32,1.32-.47,2-1,4.51-1.92,7.25-6.18,7.25l-.67,0c-2.82-.18-9.36-1.41-9.22-8.89.1-5.5,3.08-8.8,8.19-9.08h.62m0-1h-.67c-6,.32-9,4.51-9.14,10.06-.12,6.38,4.36,9.54,10.16,9.91l.73,0c6.36,0,6.47-5.77,7.67-10.16-.83-5.52-2.91-9.84-8.75-9.84Z"/><path class="cls-3" d="M936.3,281.36c-5.4,0-8.92-3.64-9.39-9.75a7.81,7.81,0,0,1,1.85-6.07,8.42,8.42,0,0,1,6.31-2.46h.16a10,10,0,0,1,6.86,2.38c1.74,1.64,2.61,4,2.56,7.14,0,5.49-2.93,8.67-8.14,8.76Z"/><path class="cls-4" d="M935.07,263.58h.16a9.48,9.48,0,0,1,6.51,2.24c1.65,1.54,2.46,3.82,2.41,6.8,0,5.15-2.75,8.16-7.65,8.24h-.2c-5.11,0-8.44-3.47-8.89-9.29a7.28,7.28,0,0,1,1.72-5.69,7.93,7.93,0,0,1,5.94-2.3m0-1c-5.24,0-9.11,3.38-8.66,9.07s3.71,10.21,9.89,10.21h.21c5.43-.09,8.68-3.48,8.64-9.25.1-6.76-4-9.95-9.91-10Z"/><path class="cls-3" d="M648.53,217.36c-5.33-.07-8.63-3.23-8.84-8.45-.23-6,3-9.1,10.61-10.07.5.63,1.14,1.31,1.82,2,1.9,2,4.06,4.3,4.4,6.79a9.22,9.22,0,0,1-1.91,7.24,7.61,7.61,0,0,1-5.93,2.47Z"/><path class="cls-4" d="M650.09,199.37c.48.59,1.06,1.2,1.67,1.84,1.85,2,4,4.18,4.27,6.51a8.7,8.7,0,0,1-1.8,6.84,7.11,7.11,0,0,1-5.55,2.3h-.14c-5-.07-8.16-3.05-8.35-8-.16-4,.91-8.28,9.9-9.52m.44-1.06c-8.7,1-11.57,4.78-11.34,10.62.23,5.69,4,8.86,9.34,8.93h.15c6.38,0,9-5.34,8.34-10.28-.51-3.7-4.72-6.9-6.49-9.27Z"/><path class="cls-3" d="M636.58,181.1c-7.49-.47-10.89-3.16-11-8.68-.11-5.82,2.93-9.12,8.58-9.28h.33a7.45,7.45,0,0,1,5.74,2.27,8.37,8.37,0,0,1,1.86,6.46c-.25,2.54-2.18,4.95-3.88,7.08C637.61,179.71,637,180.43,636.58,181.1Z"/><path class="cls-4" d="M634.51,163.64h0a6.92,6.92,0,0,1,5.36,2.1,7.86,7.86,0,0,1,1.73,6.08c-.24,2.39-2.12,4.75-3.77,6.82-.55.68-1.07,1.33-1.5,2-8.94-.66-10.18-4.71-10.24-8.18-.08-3.89,1.27-8.57,8.09-8.77h.33m0-1h-.34c-6.31.18-9.18,4.08-9.07,9.79.1,5.44,3.33,8.72,11.75,9.19,1.61-2.52,5.38-5.94,5.76-9.7.46-4.58-2-9.28-8.1-9.28Z"/><path class="cls-3" d="M914.73,81.84c-4.94-.43-7.7-3.52-7.77-8.7-.08-5.69,3.14-9,8.83-9.13H916c5.94,0,8.18,4.72,8.3,8.76C924.47,78.17,921,81.47,914.73,81.84Z"/><path class="cls-4" d="M916,64.51c5.58,0,7.69,4.46,7.8,8.28.15,5.15-3.07,8.19-9.07,8.55-4.69-.42-7.21-3.26-7.28-8.21-.08-5.37,3-8.51,8.34-8.62H916m0-1h-.23c-5.86.12-9.41,3.58-9.32,9.64.08,5.58,3.17,8.76,8.26,9.19,6.65-.37,10.25-3.93,10.09-9.58-.15-5-3.12-9.25-8.8-9.25Z"/><path class="cls-3" d="M706.44,243.92c-5.42,0-8.08-3.37-9.15-11.61.57-.48,1.19-1.11,1.84-1.77,1.81-1.82,4-4.09,6.5-4.51a8,8,0,0,1,1.44-.13c4.9,0,7.23,4.48,7.37,8.92a9.47,9.47,0,0,1-2.22,6.91,7.56,7.56,0,0,1-5.59,2.19Z"/><path class="cls-4" d="M707.07,226.4h0c4.57,0,6.74,4.24,6.87,8.44a9,9,0,0,1-2.08,6.55,7.14,7.14,0,0,1-5.24,2h-.18c-5.05,0-7.56-3.17-8.62-10.91.53-.46,1.08-1,1.67-1.61,1.75-1.78,3.94-4,6.23-4.38a7.87,7.87,0,0,1,1.35-.12m0-1a8.92,8.92,0,0,0-1.52.13c-3.63.62-6.63,4.86-8.79,6.57,1,8.34,3.76,12.32,9.68,12.32h.2c5.89-.09,8.46-4.42,8.3-9.61s-3-9.41-7.87-9.41Z"/><path class="cls-3" d="M942.26,48c-5.12-.61-8-4-7.86-9.4s3-8.45,7.81-8.45l.57,0c5.47.27,8.7,3.8,8.64,9.44C951.36,45.06,948.27,47.89,942.26,48Z"/><path class="cls-4" d="M942.21,30.65l.55,0c5.16.25,8.22,3.6,8.16,8.94-.06,5.12-3,7.77-8.64,7.89-4.88-.6-7.5-3.75-7.38-8.89s2.78-8,7.31-8m0-1c-5.33,0-8.19,3.69-8.31,8.94-.13,5.82,3.06,9.29,8.33,9.91,6.5-.11,9.62-3.36,9.69-8.88.06-5.81-3.27-9.66-9.11-9.95l-.6,0Z"/><path class="cls-3" d="M674,268c-4-.26-8.8-2-8.85-8.87,0-3,.79-5.37,2.34-6.94a7.55,7.55,0,0,1,5.57-2.05,9.33,9.33,0,0,1,6.84,2.52,8.66,8.66,0,0,1,2.3,6.39C682.14,263.06,680.67,267.91,674,268Z"/><path class="cls-4" d="M673.07,250.6a8.84,8.84,0,0,1,6.47,2.37,8.19,8.19,0,0,1,2.16,6c-.08,5.57-2.66,8.42-7.69,8.46-5.51-.37-8.32-3.18-8.36-8.37,0-2.84.74-5.11,2.2-6.58a7,7,0,0,1,5.21-1.91h0m0-1c-5.78,0-8.45,4.09-8.41,9.5,0,6.06,3.72,9,9.33,9.36,6.55,0,8.65-4.46,8.72-9.45.08-5.89-3.86-9.41-9.63-9.41Z"/><path class="cls-3" d="M1073.41,212.32a8.52,8.52,0,0,1-6.51-2.68,7.59,7.59,0,0,1-1.78-6.1c.3-2.57,2.11-5.09,3.87-7.53.76-1,1.54-2.13,2.2-3.21l3.23-.19c.74,1,1.59,2,2.41,3,1.93,2.27,3.93,4.61,4.47,7.14a8.14,8.14,0,0,1-1.37,6.6,7.8,7.8,0,0,1-5.84,3Z"/><path class="cls-4" d="M1074.18,193.13c.71,1,1.5,1.88,2.27,2.78,2,2.32,3.85,4.51,4.36,6.92a7.58,7.58,0,0,1-1.28,6.18,7.29,7.29,0,0,1-5.47,2.79l-.65,0a8.06,8.06,0,0,1-6.14-2.51,7.09,7.09,0,0,1-1.65-5.71c.28-2.44,2-4.8,3.77-7.29.71-1,1.45-2,2.09-3l1.36-.08,1.34-.07m.49-1-3.77.21c-2.21,3.71-5.83,7.26-6.28,11.18-.63,5.52,3.41,9.33,8.79,9.33l.71,0a8.21,8.21,0,0,0,7.67-10.18c-.82-3.84-4.64-7-7.12-10.52Z"/><path class="cls-3" d="M617,218.3c-3.05-.09-5.51-1.16-7-3a7.11,7.11,0,0,1-1.08-6.15c.78-3.39,4.8-7.61,7.67-8.07A9.51,9.51,0,0,1,618,201a6.49,6.49,0,0,1,4.77,1.92c1.63,1.65,2.47,4.19,2.42,7.35-.37,5.36-3,8.09-7.84,8.09Z"/><path class="cls-4" d="M618,201.45h0a6,6,0,0,1,4.4,1.77c1.51,1.53,2.32,4,2.28,7-.36,5.06-2.83,7.63-7.34,7.63H617c-2.9-.08-5.23-1.09-6.57-2.82a6.65,6.65,0,0,1-1-5.74c.74-3.17,4.61-7.26,7.27-7.68a8.6,8.6,0,0,1,1.32-.11m0-1a9.49,9.49,0,0,0-1.47.12c-3.18.51-7.29,5-8.08,8.44-1.3,5.58,2.35,9.61,8.51,9.79h.39c5.63,0,8-3.62,8.34-8.58.09-6.07-3.06-9.78-7.69-9.78Z"/><path class="cls-3" d="M1042.27,98c-4.79,0-7.7-2.87-8.19-8.07.45-6.07,3.2-9.19,8.15-9.19h.15c5.35.07,8.76,3.31,8.9,8.46s-3.11,8.56-8.48,8.79Z"/><path class="cls-4" d="M1042.23,80.2v1h.14c5.06.06,8.28,3.12,8.41,8s-2.86,8.06-8,8.28h-.51c-4.47,0-7.19-2.68-7.69-7.54.46-5.87,3-8.72,7.65-8.72v-1m0,0c-5.69,0-8.22,3.92-8.65,9.73.49,5.15,3.37,8.53,8.69,8.53h.55c5.49-.24,9.1-3.66,9-9.3s-4-8.88-9.39-9Z"/><path class="cls-3" d="M1016,167.15c-4.48,0-7.48-3.42-7.65-8.71s2.23-8.13,7.35-8.35h.65c5.42,0,8,3.17,8.81,10.95-.53.46-1.11,1.07-1.72,1.71-1.69,1.78-3.8,4-6.06,4.31A9.44,9.44,0,0,1,1016,167.15Z"/><path class="cls-4" d="M1016.34,149.58v1c4.27,0,7.32,1.76,8.28,10.25-.5.45-1,1-1.56,1.56-1.64,1.72-3.68,3.87-5.77,4.17a10,10,0,0,1-1.31.09c-4.25,0-7-3.15-7.15-8.23s2-7.62,6.88-7.83h.62v-1m0,0h-.67c-5.66.25-8,3.53-7.83,8.87.18,5.6,3.4,9.19,8.15,9.19a10.4,10.4,0,0,0,1.45-.1c3.38-.49,6.23-4.67,8.24-6.31-.82-8.17-3.5-11.66-9.34-11.66Z"/><path class="cls-3" d="M714,139.64c-4.81,0-8.3-1.18-10.1-3.31a6.47,6.47,0,0,1-1.28-5.48c.55-3.22,4.78-7.74,7.82-8.32a7.56,7.56,0,0,1,1.47-.15,6.51,6.51,0,0,1,4.8,2.08,9.68,9.68,0,0,1,2.46,7c-.11,2.32-2.13,4.62-3.75,6.46C714.81,138.57,714.32,139.13,714,139.64Z"/><path class="cls-4" d="M711.86,122.88h0a6,6,0,0,1,4.44,1.93,9.12,9.12,0,0,1,2.32,6.65c-.1,2.14-2.06,4.36-3.63,6.15-.49.56-.93,1.06-1.29,1.52-4.53-.07-7.8-1.15-9.47-3.12a5.94,5.94,0,0,1-1.16-5.07c.51-3.07,4.53-7.37,7.41-7.92a7.43,7.43,0,0,1,1.38-.14m0-1a7.8,7.8,0,0,0-1.56.16c-3.32.64-7.65,5.32-8.22,8.73-.93,5.57,3,9.37,12.12,9.37h0c1.31-1.95,5.25-5.21,5.41-8.64.22-4.73-2.77-9.62-7.76-9.62Z"/><path class="cls-3" d="M801,95.07a6.29,6.29,0,0,1-4.58-1.92A10.06,10.06,0,0,1,793.86,86c.07-3.61,1.4-7.93,7.36-7.93h.48c6.09.23,7.57,3.76,8.32,11.1-.6.47-1.24,1.09-1.92,1.74-1.91,1.81-4.08,3.87-6.37,4.1C801.47,95.05,801.22,95.07,801,95.07Z"/><path class="cls-4" d="M801.22,78.58h.46c5.11.19,7,2.64,7.82,10.38-.56.46-1.14,1-1.75,1.59-1.85,1.77-4,3.76-6.07,4-.24,0-.48,0-.7,0a5.71,5.71,0,0,1-4.22-1.77,9.54,9.54,0,0,1-2.4-6.78c.09-4.93,2.4-7.44,6.86-7.44m0-1c-5.85,0-7.78,4-7.86,8.42-.09,4.79,2.64,9.57,7.62,9.57.26,0,.52,0,.79,0,3.45-.34,6.54-4.45,8.78-6.12-.77-7.78-2.44-11.58-8.83-11.82Z"/><path class="cls-3" d="M886.72,316.51c-5.81,0-8.47-3.46-8.63-11.06.43-.37.91-.86,1.45-1.41,1.57-1.6,3.73-3.81,6.13-4.33a7.6,7.6,0,0,1,1.73-.2c5.43,0,6.42,6.54,6.59,8.55a8.24,8.24,0,0,1-1.79,6.37,7.09,7.09,0,0,1-5.4,2.08Z"/><path class="cls-4" d="M887.4,300h0c5,0,5.93,6.19,6.09,8.09a7.79,7.79,0,0,1-1.65,6,6.53,6.53,0,0,1-5,1.92h-.08c-3.88,0-7.87-1.29-8.12-10.34.39-.36.82-.79,1.29-1.28,1.53-1.56,3.63-3.7,5.89-4.2a7.87,7.87,0,0,1,1.62-.18m0-1a8.1,8.1,0,0,0-1.83.21c-3.49.76-6.29,4.65-8,6,.12,8.88,3.64,11.75,9.12,11.79h.09c5.58,0,8.11-4,7.69-9-.39-4.46-2.4-9-7.09-9Z"/><path class="cls-3" d="M866.33,63.07a8.08,8.08,0,0,1-1.2-.09c-2.09-.33-4-2.1-6.63-4.55-1.27-1.19-2.7-2.51-4.37-3.88,1.73-1.26,3.25-2.55,4.61-3.69,2.62-2.19,4.68-3.93,6.32-3.93l.29,0c2.93.38,7.13,4.65,7.75,7.86a6.82,6.82,0,0,1-6.77,8.26Z"/><path class="cls-4" d="M865.06,47.43h0l.23,0c2.71.35,6.75,4.46,7.32,7.46a6.32,6.32,0,0,1-6.28,7.66,7.27,7.27,0,0,1-1.13-.09c-1.93-.3-3.79-2-6.36-4.42-1.15-1.07-2.43-2.26-3.9-3.49,1.53-1.14,2.9-2.29,4.13-3.33,2.43-2,4.53-3.81,6-3.81m0-1c-2.83,0-6.3,4.23-11.76,8.1,5.47,4.35,8.34,8.41,11.75,8.94a8.06,8.06,0,0,0,1.28.1,7.32,7.32,0,0,0,7.26-8.85c-.64-3.34-5-7.85-8.17-8.27l-.36,0Z"/><path class="cls-3" d="M634.7,254.48c-5.18,0-7.91-2.63-8.13-7.77-.24-5.52,2.53-8.28,8.7-8.68,4.66,0,7.27,2.75,7.36,7.73,0,3-.66,5.23-2.1,6.7a7.81,7.81,0,0,1-5.79,2Z"/><path class="cls-4" d="M635.28,238.53h0c4.4,0,6.77,2.5,6.85,7.24,0,2.83-.61,5-2,6.34A7.35,7.35,0,0,1,634.7,254c-4.86,0-7.43-2.47-7.63-7.29-.23-5.26,2.3-7.77,8.21-8.16m0-1h0c-6.38.41-9.43,3.33-9.17,9.2.23,5.46,3.28,8.23,8.63,8.25h0c6,0,8.48-3.72,8.39-9.23-.09-5.34-3-8.22-7.85-8.22Z"/><path class="cls-3" d="M1003.82,41c-.65-.94-1.42-1.9-2.17-2.82-1.79-2.2-3.63-4.47-3.56-6.51.1-2.67,4-7,6.84-7.68a7.23,7.23,0,0,1,1.63-.19,5.47,5.47,0,0,1,4.11,1.77,8.91,8.91,0,0,1,2.06,6.67c-.14,2-1.83,4.11-3.46,6.1-.7.86-1.43,1.75-2,2.64Z"/><path class="cls-4" d="M1006.56,24.31h0a4.94,4.94,0,0,1,3.75,1.61,8.43,8.43,0,0,1,1.92,6.29c-.13,1.89-1.77,3.89-3.35,5.83-.65.79-1.32,1.62-1.91,2.45l-2.89,0c-.62-.89-1.34-1.77-2-2.64-1.73-2.12-3.52-4.32-3.45-6.17.09-2.46,3.83-6.63,6.44-7.21a7,7,0,0,1,1.53-.18m0-1a7.75,7.75,0,0,0-1.74.2c-3,.67-7.12,5.22-7.23,8.15-.11,3.21,3.8,6.56,6,9.85l4,0c2-3.06,5.51-6,5.73-9.21.31-4.38-2-9-6.67-9Z"/><path class="cls-3" d="M1040.28,14.85a1.24,1.24,0,0,1-.33,0c-2.81-.77-6.29-5-6.78-8.26a4.49,4.49,0,0,1,1.31-2.67c1.66-2,4.06-3.67,5.46-3.74h.13c1.77,0,3.78,1.77,5.72,3.49.84.74,1.71,1.51,2.57,2.14l0,3.3c-.9.66-1.85,1.5-2.77,2.32C1043.62,13.09,1041.63,14.85,1040.28,14.85Z"/><path class="cls-4" d="M1040.07.64c1.58,0,3.52,1.71,5.39,3.36.78.69,1.59,1.41,2.4,2l0,1.39,0,1.41c-.86.65-1.75,1.43-2.61,2.19-1.76,1.57-3.77,3.34-4.93,3.34l-.19,0c-2.61-.72-6-4.83-6.42-7.86,0-.24.17-1,1.19-2.27,1.56-1.9,3.85-3.5,5.11-3.56h.1m0-1h-.15c-2.71.14-7.55,4.89-7.24,7,.5,3.35,4,7.82,7.14,8.67a1.76,1.76,0,0,0,.46.06c2.3,0,5.68-4,8.53-6l.06-3.81c-2.94-2.09-6-5.88-8.8-5.88Z"/><path class="cls-5" d="M305.22,554.33h71.34c24.75,0,34.1,14.12,29.34,33.19l-2,7.88c-2.75,10.09-10.27,16.33-20.17,20,8.8,4.22,14.48,11.56,12.28,22.19l-2.93,11.74c-4.77,19.07-21.09,33.37-45.85,33.37H273.68Zm8.07,102.14h32.82c9.54,0,14.31-4.58,16.32-12.84l1.11-4.4c1.83-6.78-1.47-10.63-11-10.63H320.07Zm59.6-64.18c2.2-8.25-.74-11.92-10.27-11.92H332L325.76,606H356.2c9.35,0,14.12-3.3,15.77-10.09Z"/><path class="cls-5" d="M435.24,554.33h33.19L443.85,654.64H505.1l-7,28.05H403.69Z"/><path class="cls-5" d="M598.62,653.54H552.78l-15.59,29.15H500.88s65.29-115.53,69.5-123.23c2.75-5,3.31-5.13,9.91-5.13H619.9c6.6,0,7.33.18,7.52,5.13.36,7.7,8.61,123.23,8.61,123.23H599.91ZM566.9,625.85h31.36L596.42,580h-5.31Z"/><path class="cls-5" d="M769.53,582.57H711.4c-6.78,0-7.7.36-9.54,6.42l-.73,2.38c-1.1,3.48,1.1,4.4,5.69,5.32,0,0,35.39,6.78,39.42,7.52,21.09,4.21,23.11,12.65,18.71,30.62l-3.67,15.41c-5.69,22.73-18.52,33.37-51,33.37-24.76,0-64.18-2.93-64.18-2.93l6.78-26.41h60.33c10.27,0,14.12-1.83,16.14-9.54l1.47-5.5c.73-2.75.37-5.32-3.49-6.05-4.21-.92-30.62-5.87-33.55-6.42-23.11-4.22-34.11-5.87-28.43-28.79l2.94-11.73c5.68-22.93,19.25-33,51.71-33,24.76,0,56.3,2.93,56.3,2.93Z"/><path class="cls-5" d="M895.15,581.83H855L830.23,682.69H797l24.75-100.86H781.45l6.79-27.5H901.93Z"/><path class="cls-5" d="M994.54,607.87h59.23l-18.52,67.67a7.4,7.4,0,0,1-6.61,5.69s-39.24,2.56-69.13,2.56c-24.57,0-33.38-16.32-28.61-35.39l14.67-60c4.77-19.08,21.46-35.21,46-35.21,31.73,0,67.48,1.46,67.48,1.46l-7,27.14h-58.5c-9.54,0-14.31,4.59-16.32,12.84l-11.74,47.5c-2,8.25.55,12.83,10.09,12.83h35.21l5.31-20.54L988.3,633Z"/><path class="cls-5" d="M1104,655.55h21.27c9.54,0,14.31-4.58,16.33-12.83l21.63-88.39h33.38l-23.11,94.25c-4.76,19.08-21.27,34.3-46,34.3h-39.07c-24.75,0-33.74-15.22-29-34.3l23.11-94.25h33l-21.64,88.39C1091.91,651,1094.48,655.55,1104,655.55Z"/><path class="cls-5" d="M1258.78,605.67l40.9-51.34H1338L1265.93,644l-9.53,38.69h-33.19l9.35-38.32-28.24-90H1243Z"/><path class="cls-5" d="M497.88,346.78a4.1,4.1,0,0,1,3.59-2.31h61.3L518.66,524H472.24l25.13-102.59H494.8l-55.91,99.25s-1.53,3.34-4.61,3.34H397.09a3.27,3.27,0,0,1-3.33-3.34l-7.19-99.25H384L358.88,524H312.45l44.12-179.53H415.3a2.35,2.35,0,0,1,2.56,2.31L431.2,456h2.05Z"/><path class="cls-5" d="M557.39,476.29l20.77-84.12c6.67-26.67,29.5-48,63.86-48h58c34.63,0,47.45,21.29,40.78,48L720,476.29c-6.67,26.68-29.75,48-64.38,48h-58C563.29,524.25,550.72,503,557.39,476.29Zm65.4-77.19-16.67,68.47c-2.83,11.29.77,18,14.1,18h32.32c13.33,0,20-6.67,22.82-18L692,399.1c2.82-11.29-1-16.67-14.36-16.67H645.36C632,382.43,625.61,387.81,622.79,399.1Z"/><path class="cls-5" d="M778.72,344.47h99.77c34.62,0,47.7,19.75,41,46.42l-2.82,11c-3.84,14.1-14.36,22.82-28.21,27.95,12.31,5.9,20.26,16.16,17.19,31l-4.11,16.41C894.9,504,872.08,524,837.45,524H734.61ZM790,487.32h45.91c13.33,0,20-6.41,22.82-17.95l1.54-6.16c2.56-9.48-2-14.87-15.39-14.87H799.5Zm83.35-89.76c3.08-11.54-1-16.67-14.36-16.67H816.17l-8.72,35.9H850c13.08,0,19.75-4.61,22.06-14.1Z"/><path class="cls-5" d="M963.38,524H917l44.12-179.53h46.42Z"/><path class="cls-5" d="M1037.25,344.47h46.42L1049.3,484.76H1135L1125.22,524H993.13Z"/><path class="cls-5" d="M1186.51,344.47H1322.7l-9.24,38H1223.7l-8,31.29h76.17l-9.49,39h-76.17l-7.44,31h89.51l-10,40.27H1142.4Z"/></svg>