<svg id="Logo" xmlns="http://www.w3.org/2000/svg" viewBox="0 0 1186 684"><defs><style>.cls-1{fill:#393;}.cls-2{fill:#f1f1f1;}.cls-3{fill:#3a3a3a;}.cls-4{fill:#e8e6e6;}.cls-5{fill:#fff;}.cls-6{fill:#ef6423;}</style></defs><title>mobile-blast-guy-logo</title><g id="layer1"><g id="path11522"><path class="cls-1" d="M501,497.81l18.88-33.94V474h48.43a34,34,0,0,0,16.08-5.78c-1.28,2.74-2.5,5.41-3.69,8-11.82,25.9-19.63,43-48.24,43H520.35V531.4Zm-55,22c-20.48-6.36-31.75-29-41.7-49-.63-1.28-1.26-2.53-1.87-3.75,5.23,3.81,11.64,7.42,16.1,7.42l32.64.07h31.46l-.09,45.25ZM418.9,468.41c-9.23-2.21-16.91-9.42-21.15-19.85L414,415.38,402.35,409h39.82l19.4,35.23-11.92-7.14-15,31.63Zm133.67-.19L533.1,432.34l38.95-23.59,19.25,38.56c.07,3.31-2,7.5-5.88,11.58-5.25,5.59-12.31,9.5-17.15,9.5Zm-40.24-69.34-.53-1.26a169.47,169.47,0,0,0-17.35-32,91.34,91.34,0,0,0-16.52-18l49.13-.1c9.19.85,13.57,6.38,18.32,13.53l8.51,15,8.27-5.28L543,404.93l-41.87.09ZM432.1,380.75l20.11-30.14a27.57,27.57,0,0,1,9.23-1.7c13.32,0,22.16,11.71,28.09,19.92L470.7,405Z"/><path class="cls-2" d="M461.44,347.41v3c12.21,0,20.33,10.28,26.33,18.55l-17.65,33.88L434.2,380.3l19-28.43a25.63,25.63,0,0,1,8.26-1.46v-3M527,349c7.77.74,11.73,4.73,17.11,12.82l7.71,13.55,1.56,2.74,2.66-1.7,1.9-1.21-15.85,28.23L507,403.5l4.87-2.66,2.38-1.3-1.06-2.5a171.35,171.35,0,0,0-17.5-32.31A100.2,100.2,0,0,0,482,349.09l45-.09m-85.71,61.47,16.3,29.59-5.74-3.44L449,434.93l-1.41,3-13.86,29.26L426.3,467l-7.21-.12c-8.5-2.1-15.61-8.72-19.7-18.31l15.34-31.28,1.26-2.57-2.51-1.38-5.28-2.91h33.08m130.16.41,18.36,36.78c-.09,2.84-2.09,6.6-5.47,10.2-4.92,5.23-11.67,9-16.06,9h-.08l-14.72-.16L535.1,432.88l36.34-22m-53.11,58.77v5.86h50.09A37.28,37.28,0,0,0,581,472c-.57,1.23-1.12,2.45-1.68,3.66-12,26.28-19.22,42.15-46.87,42.15H518.85v8l-16.18-28,15.66-28.14m-112.08,1.79c4.16,2.53,8.63,4.53,12.22,4.53l21.63,0,11,0h30L481,518.29H446.18c-19.3-6.12-30.31-27.53-39.93-46.85M527.13,346l-53.94.11c5.87,3.51,13.63,11.36,20,20.36,7.17,10.06,12.9,21.63,17.19,31.74l-15.23,8.32,48.65-.11,22.56-40.18-12,7.65-7.76-13.65c-5.14-7.72-9.84-13.37-19.53-14.24Zm-65.69,1.41a29.3,29.3,0,0,0-10.21,2L430,381.2l41.28,25.91,20-38.41c-6.19-8.58-15.35-21.29-29.85-21.29Zm111.23,59.22L531.1,431.8l20.57,37.91,16.48.18h.12c9.67,0,25.12-13.36,24.51-23l-20.11-40.3Zm-129.61.84H396.5L412,416,396.11,448.5c4,10.21,11.62,18.85,22.6,21.41l16.9.3q7.35-15.51,14.69-31l15.26,9.14-22.5-40.87Zm78.27,50.61-22.11,39.74L521.85,537V520.77h10.56c34.88,0,39.76-24.42,56.62-58.9-5.29,6.37-12.6,9.76-20.93,10.64H521.33V458.08Zm-123.51,3.35c11.39,21.61,23,52.29,47.9,59.86h38.16l.1-.14.11-48.11h-33L418.48,473c-5.67,0-15.44-6.8-20.66-11.54Z"/></g></g><path class="cls-3" d="M92.12,682.58a15.06,15.06,0,0,1-3.51-.46c-22.34-5.45-42.07-16.58-57.07-32.19C15.43,633.15,5.33,611.53,2.35,587.4-3.27,541.83,11,500.72,24,470l.79-1.86c2.5-5.9,5.08-12,7.82-17.9l.28-.61c2.81-6,5.46-11.73,2.31-19.9-1.79-4.63,1.63-12.69,3.46-17,9.94-23.47,20.15-47.3,30-70.34,10.9-25.41,22.16-51.7,33.11-77.61,1.64-3.91,1.82-9.6.43-14.51-6.46-22.94-7.18-42-2.27-60,6.67-24.44,22.46-36.49,48.26-36.84,7.92-.11,16.4-.16,26.67-.16,7,0,14.08,0,21.12.05l19.63,0v1.19h1.5c6.47,0,13.05.05,19.42.09s12.95.1,19.43.1h0c10.11,0,18.41-.12,26.13-.38l1.94,0c13.21,0,24.58,4.59,34.78,14,5.42,5,10.94,5.73,16.11,5.75,12.64.06,25.5.24,37.93.42,15.13.21,30.77.43,46.15.43l6.5,0h.11c7.21,0,10.34,2.79,10.8,9.62.92,13.68,1.38,27.64,1.76,40.77.18,6.29-2.62,8.93-10,9.4-31.8,2.05-65.26,4.59-102.29,7.76a19.79,19.79,0,0,0-11.81,5.85c-8.83,9.35-18.54,13.71-30.57,13.71h-1.33c-22,0-45.74.66-72.49,2-3.87.2-8.37,2.5-13.75,7a85.72,85.72,0,0,0-8.17,8.23c-2.06,2.27-4.18,4.61-6.43,6.68-2.84,2.61-5.66,4.17-7.54,4.17h-.19c-.38,0-.75,0-1.1,0-7.94,0-11.07,5.2-13.82,11q-11.67,24.52-23.41,49c-14.62,30.58-29.74,62.19-44.38,93.39-2.61,5.56-5.6,7.83-10.34,7.83a21.71,21.71,0,0,1-4.48-.54,6.74,6.74,0,0,0-1.32-.12c-2.43,0-6.26,1.13-7.15,3.25q-1.73,4.13-3.47,8.25C49.6,496.73,34.54,532.46,34.28,571.49c-.09,13.73,2.51,29.42,7.72,46.61,6.78,22.34,23,38.8,48.14,48.92,4,1.63,6.77,3.58,7.48,5.36,1.27,3.19,1.28,6,0,7.8C96.59,681.75,94.68,682.57,92.12,682.58Zm209-504.14a21.23,21.23,0,0,1-2,1.44c-1.95,1.27-4,2.59-4.16,4.56-1,10.05-1.9,20.73-1.44,31.12.23,5.09,1.55,10.14,2.82,15,.56,2.14,1.14,4.34,1.61,6.5l.27,1.22,5.39-.19.31-1c.14-.44.34-.92.55-1.43a7.51,7.51,0,0,0,.87-4.15c-2.76-15.68-2.15-30.24,1.88-44.51.55-2-.92-4-2.34-6a23.43,23.43,0,0,1-1.45-2.18l-.88-1.59Z"/><path class="cls-2" d="M174.87,154.72c7,0,14.2,0,21.13.05l18.14,0V156h3c6.47,0,13,.05,19.41.09s13,.1,19.44.1c10.13,0,18.45-.12,26.19-.38l1.89,0c12.81,0,23.85,4.46,33.76,13.64,5.8,5.37,11.65,6.13,17.12,6.15,12.63.06,25.49.24,37.92.42,15.13.21,30.77.43,46.17.43l6.5,0h.11c6.38,0,8.9,2.23,9.31,8.22.91,13.65,1.37,27.6,1.75,40.71.14,4.84-1.15,7.39-8.6,7.87-31.81,2-65.28,4.59-102.32,7.76A21.37,21.37,0,0,0,313,247.28c-8.64,9.16-17.73,13.24-29.48,13.24h-1.31c-22.07,0-45.81.66-72.59,2-4.26.22-8.91,2.56-14.64,7.38a88.64,88.64,0,0,0-8.31,8.37c-2.13,2.35-4.14,4.56-6.34,6.59-2.49,2.29-5,3.77-6.52,3.77h-.11c-.4,0-.8,0-1.18,0-9.54,0-12.93,7.13-15.17,11.85-7.79,16.36-15.74,33-23.43,49.06-14.62,30.56-29.73,62.16-44.37,93.36-2.71,5.77-5.55,7-9,7a20.76,20.76,0,0,1-4.17-.5,7.64,7.64,0,0,0-1.63-.16c-2.22,0-7.21,1-8.53,4.17q-1.73,4.13-3.47,8.25c-14.63,34.69-29.75,70.55-30,109.88-.09,13.88,2.53,29.72,7.79,47.06,6.91,22.79,23.4,39.57,49,49.87,4.26,1.72,6.24,3.51,6.64,4.53,1.07,2.67,1.14,5,.19,6.4s-2.87,1.73-4.29,1.73a13.19,13.19,0,0,1-3.16-.41c-22-5.37-41.53-16.36-56.33-31.77C16.74,632.35,6.78,611,3.84,587.21-1.74,542,12.42,501.13,25.38,470.59l.82-1.93c2.48-5.87,5.05-11.93,7.77-17.79l.28-.61c2.82-6.05,5.73-12.3,2.35-21.07C35,425.12,38.41,417.13,40,413.3,50,389.82,60.19,366,70.07,343c10.9-25.41,22.17-51.7,33.11-77.62,2.15-5.09,1.67-11.34.5-15.49-6.39-22.67-7.11-41.49-2.27-59.24,3.3-12.07,8.67-20.81,16.43-26.72s17.68-8.84,30.4-9c7.91-.11,16.37-.16,26.63-.16M297,239.85l2.5-.09,3.07-.11,2.15-.08.62-2c.11-.37.3-.82.49-1.29a8.86,8.86,0,0,0,1-5,96.59,96.59,0,0,1,1.84-43.85c.75-2.65-1-5.08-2.56-7.23a24,24,0,0,1-1.36-2L302.91,175l-2.79,2.34a21.28,21.28,0,0,1-1.89,1.33c-2.14,1.4-4.57,3-4.83,5.68-1,10.1-1.91,20.83-1.45,31.32.23,5.26,1.58,10.38,2.87,15.34.56,2.12,1.13,4.31,1.59,6.44l.54,2.45M174.87,151.72q-13.34,0-26.67.16c-26.47.36-42.79,12.66-49.68,37.94-5.56,20.38-3.41,40.67,2.27,60.84,1.18,4.19,1.27,9.61-.38,13.52-20.85,49.39-42.23,98.57-63.13,148-2.41,5.68-5.37,13.22-3.48,18.13,3,7.85.32,13.15-2.55,19.35-3,6.53-5.82,13.17-8.63,19.8C6.6,507.18-4.29,545.83.87,587.58c6.39,51.77,43.4,85.28,87.38,96a16.8,16.8,0,0,0,3.87.49c6.59,0,9.78-5,6.89-12.24-1.1-2.77-5.15-4.93-8.31-6.2-22.78-9.16-40.08-24.29-47.26-48-4.5-14.84-7.76-30.76-7.66-46.17.28-41.79,17.47-79.32,33.25-117,.53-1.28,3.58-2.33,5.76-2.33a5.2,5.2,0,0,1,1,.09,23.21,23.21,0,0,0,4.79.57c5.19,0,8.79-2.48,11.7-8.69,22.33-47.59,45.2-94.93,67.78-142.4,2.67-5.61,5.38-10.14,12.47-10.14l1,0h.28c2.83,0,6.23-2.42,8.55-4.56,5.1-4.69,9.27-10.43,14.55-14.87,3.66-3.08,8.44-6.46,12.86-6.68,24.12-1.23,48.29-2,72.44-2h1.31c13.1,0,22.95-4.94,31.66-14.18A18.43,18.43,0,0,1,326,244q51.09-4.38,102.27-7.76c7.69-.5,11.62-3.34,11.4-10.94-.4-13.62-.85-27.24-1.76-40.83-.49-7.23-3.94-11-12.3-11h-.12l-6.49,0c-28,0-56.05-.72-84.07-.85-5.91,0-10.54-1.13-15.1-5.35-10.06-9.32-21.73-14.44-35.8-14.44l-2,0c-8.69.29-17.39.38-26.09.38-12.94,0-25.9-.19-38.85-.19v-1.19c-14.09,0-28.18-.1-42.27-.1Zm124.48,85c-1.55-7.09-4.09-14.13-4.4-21.27-.46-10.27.43-20.64,1.43-30.9.18-1.83,3.69-3.34,5.67-5,1.3,2.35,4.17,5.15,3.65,7a99.88,99.88,0,0,0-1.9,45.18c.26,1.5-.89,3.25-1.38,4.89l-3.07.11Z"/><path class="cls-4" d="M822.49,110.67c-6.1,0-10.67-4.27-10.86-10.15a10.72,10.72,0,0,1,3.18-7.6,10.47,10.47,0,0,1,7.35-3.42,10.29,10.29,0,0,1,7.15,3.15,11.18,11.18,0,0,1,3.37,7.81c0,6.25-3.71,10.07-9.89,10.21Z"/><path class="cls-5" d="M822.22,90A9.7,9.7,0,0,1,829,93a10.64,10.64,0,0,1,3.23,7.45c0,6-3.53,9.58-9.41,9.71h-.28c-5.82,0-10.18-4.06-10.36-9.66a10.18,10.18,0,0,1,3-7.24,10,10,0,0,1,7-3.28h.06m0-1h-.06c-5.77.05-11.21,5.74-11,11.55.19,6.19,5,10.63,11.35,10.63h.31c6.41-.15,10.37-4.23,10.38-10.71,0-6-5.25-11.47-11-11.47Z"/><path class="cls-4" d="M796.23,186.89a10.87,10.87,0,0,1-7.6-3.51,10,10,0,0,1-2.75-7.31,9.65,9.65,0,0,1,9.94-9.57h.5a10.41,10.41,0,0,1,10.27,10.85,9.52,9.52,0,0,1-10,9.54Z"/><path class="cls-5" d="M795.82,167h.48a9.94,9.94,0,0,1,9.8,10.33c-.16,5.42-4,9.06-9.47,9.06h-.38A10.44,10.44,0,0,1,789,183a9.54,9.54,0,0,1-2.62-6.95,9.18,9.18,0,0,1,9.45-9.09m0-1a10.17,10.17,0,0,0-10.44,10,11.16,11.16,0,0,0,10.83,11.35h.42c6,0,10.29-4.09,10.46-10A10.89,10.89,0,0,0,796.34,166Z"/><path class="cls-4" d="M642.25,199.61a10.31,10.31,0,0,1-10.42-10,9.81,9.81,0,0,1,2.69-7.23,10,10,0,0,1,7.27-2.93c5.87,0,10.64,4.44,10.72,9.82a10.14,10.14,0,0,1-3.11,7.1,10.27,10.27,0,0,1-7.15,3.23Z"/><path class="cls-5" d="M641.79,180h.06c5.53,0,10.09,4.21,10.16,9.33a9.67,9.67,0,0,1-3,6.74,9.65,9.65,0,0,1-16.72-6.43,9.33,9.33,0,0,1,2.55-6.86,9.46,9.46,0,0,1,6.91-2.78m0-1a10.13,10.13,0,0,0-10.46,10.67,10.77,10.77,0,0,0,10.92,10.48h0c5.54,0,10.83-5.33,10.76-10.83-.08-5.7-5-10.29-11.15-10.32Z"/><path class="cls-4" d="M639.35,300.71a9.08,9.08,0,0,1-6.45-2.77,11,11,0,0,1-3.16-7.81c0-5.85,4.06-9.78,10-9.78,5.76,0,9.46,4.13,9.5,10.43,0,5.92-3.12,9.34-9.13,9.9Z"/><path class="cls-5" d="M639.79,280.85h.07c5.38,0,8.89,3.93,8.93,9.93.05,7.1-4.69,9-8.67,9.4l-.77,0a8.57,8.57,0,0,1-6.09-2.62,10.52,10.52,0,0,1-3-7.46c0-5.55,3.86-9.28,9.55-9.28m0-1c-6.24,0-10.53,4.18-10.55,10.28,0,5.92,4.45,11.08,10.11,11.08a8.38,8.38,0,0,0,.86,0c5.91-.54,9.62-3.89,9.58-10.39s-3.95-10.89-9.92-10.93Z"/><path class="cls-4" d="M710.42,188.57c-5.33,0-10.64-5.31-10.72-10.72a9.75,9.75,0,0,1,2.88-6.87,10.15,10.15,0,0,1,7.15-3.08h.18a10.12,10.12,0,0,1,7.47,3.48,8.7,8.7,0,0,1,2.14,6.83c-.64,5-2.19,10.21-8.92,10.36Z"/><path class="cls-5" d="M709.74,167.4v1h.16a9.62,9.62,0,0,1,7.1,3.31,8.18,8.18,0,0,1,2,6.43c-.86,6.85-3.38,9.81-8.43,9.93h-.18c-5.07,0-10.13-5.07-10.21-10.23a9.24,9.24,0,0,1,2.73-6.51,9.68,9.68,0,0,1,6.8-2.93v-1m0,0a10.67,10.67,0,0,0-10.53,10.46c.08,5.63,5.54,11.21,11.21,11.21h.2c6.92-.16,8.72-5.38,9.4-10.8.73-5.81-4.23-10.76-10.09-10.87Z"/><path class="cls-4" d="M698.45,280.17a9.52,9.52,0,0,1-6.87-3,10.14,10.14,0,0,1-2.34-7.64c.5-6.46,3.62-9.78,9.29-9.86h.11a9.79,9.79,0,0,1,7,3.24,9.69,9.69,0,0,1,2.81,7.12c-.37,6.29-4.05,10.19-9.58,10.19Z"/><path class="cls-5" d="M698.64,260.13a9.27,9.27,0,0,1,6.63,3.08A9.17,9.17,0,0,1,708,270c-.36,6-3.84,9.72-9.08,9.72h-.4a9,9,0,0,1-6.52-2.88,9.65,9.65,0,0,1-2.21-7.26c.48-6.25,3.36-9.32,8.8-9.4h.1m0-1h-.12c-6.59.09-9.32,4.37-9.78,10.32-.49,6.4,3.64,11,9.69,11.22h.44c5.75,0,9.69-4.14,10.08-10.66.33-5.4-4.68-10.89-10.31-10.89Z"/><path class="cls-4" d="M753.82,141.45a12,12,0,0,1-8.65-3.64,8.77,8.77,0,0,1-2.41-6.56c.41-6.39,3.56-9.69,9.37-9.79h.18c5.53,0,10.46,4.53,10.56,9.69a10.7,10.7,0,0,1-3.1,7.62,8.3,8.3,0,0,1-5.88,2.68Z"/><path class="cls-5" d="M752.31,122c5.27,0,10,4.3,10.06,9.2a10.36,10.36,0,0,1-3,7.25,7.84,7.84,0,0,1-5.53,2.54h-.06a11.45,11.45,0,0,1-8.29-3.48,8.13,8.13,0,0,1-2.28-6.19c.39-6.09,3.38-9.22,8.87-9.32h.18m0-1h-.19c-6.69.12-9.48,4.39-9.86,10.26s5,10.66,11.56,10.73h.07c5,0,9.58-5.17,9.48-10.81-.1-5.45-5.23-10.18-11.06-10.18Z"/><path class="cls-4" d="M704.52,114.07a10.11,10.11,0,0,1-7.36-3.19,8.87,8.87,0,0,1-2.47-6.68c.39-6,3.75-9.62,9.47-10.24.31,0,.62,0,.92,0,5,0,8.77,4.62,8.86,11-.08,4-1.72,8.92-9.06,9.17Z"/><path class="cls-5" d="M705.08,94.41h0c4.76,0,8.28,4.41,8.36,10.46-.11,5.57-3,8.5-8.58,8.69h-.34a9.66,9.66,0,0,1-7-3,8.41,8.41,0,0,1-2.33-6.31c.26-4,2-9,9-9.77a8.62,8.62,0,0,1,.87,0m0-1c-.32,0-.65,0-1,0-6.18.67-9.52,4.69-9.91,10.71-.37,5.66,4.57,10.4,10.33,10.4h.37c6.61-.23,9.44-4.09,9.55-9.67-.09-6.75-4.07-11.48-9.36-11.48Z"/><path class="cls-4" d="M883.75,283.4c-5.18-.58-8.15-4-8.35-9.71-.22-6.18,2.86-9.87,8.68-10.38a5.25,5.25,0,0,1,.56,0c4.72,0,9.68,5.17,9.82,10.24C894.62,278.84,889.92,283.18,883.75,283.4Z"/><path class="cls-5" d="M884.64,263.78h0c4.39,0,9.19,5,9.32,9.75.15,5-4.32,9.14-10.19,9.37-4.89-.56-7.68-3.83-7.87-9.22-.15-4.16,1.16-9.26,8.23-9.87l.51,0m0-1-.6,0c-6.39.56-9.36,4.69-9.14,10.9s3.74,9.64,8.83,10.19c6.72-.23,11.39-5,11.23-10.39s-5.26-10.73-10.32-10.73Z"/><path class="cls-4" d="M747.66,237.06c-.34,0-.7,0-1.07,0a9.15,9.15,0,0,1-6.51-3.1c-1.84-2.18-2.62-5.32-2.27-9.09a8.4,8.4,0,0,1,8.76-7.09,13.6,13.6,0,0,1,1.66.11,10.05,10.05,0,0,1,7,3.48,8.87,8.87,0,0,1,1.49,6.83C755.9,234.06,752.86,237.06,747.66,237.06Z"/><path class="cls-5" d="M746.57,218.24h0a14.77,14.77,0,0,1,1.6.1,9.59,9.59,0,0,1,6.64,3.29,8.36,8.36,0,0,1,1.39,6.46c-.75,5.62-3.63,8.47-8.54,8.47-.33,0-.68,0-1,0a8.67,8.67,0,0,1-6.17-2.93c-1.74-2.06-2.48-5.05-2.15-8.67.85-4.24,3.86-6.68,8.26-6.68m0-1a8.89,8.89,0,0,0-9.26,7.54c-.71,7.62,3.15,12.29,9.25,12.74.38,0,.75,0,1.1,0,6,0,8.79-3.79,9.54-9.34.87-6.45-3-10.13-8.91-10.87a14.72,14.72,0,0,0-1.72-.11Z"/><path class="cls-4" d="M660,148.75a12.44,12.44,0,0,1-9.19-3.92,7.62,7.62,0,0,1-2.09-5.91c.54-4.73,2-9.56,8.65-9.58a11.38,11.38,0,0,1,8.2,3.3,9.45,9.45,0,0,1,2.68,7c-.17,5.28-3.12,8.66-7.91,9.06Z"/><path class="cls-5" d="M657.39,128.84v1a10.87,10.87,0,0,1,7.82,3.15,8.94,8.94,0,0,1,2.54,6.67c-.16,5-2.93,8.2-7.42,8.58H660a11.91,11.91,0,0,1-8.82-3.75,7.1,7.1,0,0,1-2-5.52c.72-6.39,3.16-9.12,8.15-9.14l0-1m0,0h0c-6.82,0-8.55,4.89-9.14,10-.61,5.35,5,10.38,11.78,10.38h.39c4.67-.39,8.17-3.65,8.36-9.54.2-6.33-5-10.86-11.36-10.86Z"/><path class="cls-4" d="M604.46,122.82a8.85,8.85,0,0,1-6.32-2.86,10,10,0,0,1,6.93-17l.72,0c5.33.43,8.12,3.65,8.51,9.83-.66,6.19-3.77,9.59-9.25,10Z"/><path class="cls-5" d="M605.07,103.42h0l.68,0c5.09.41,7.65,3.36,8,9.27-.67,6-3.54,9.17-8.78,9.58l-.56,0a8.32,8.32,0,0,1-6-2.71,9.45,9.45,0,0,1,6.57-16.19m0-1a10.72,10.72,0,0,0-10.39,10.13c-.18,5.51,4.42,10.77,9.78,10.77l.63,0c6.28-.5,9.09-4.69,9.71-10.56-.37-5.83-2.86-9.79-9-10.29l-.76,0Z"/><path class="cls-4" d="M672.31,230.38h-.62c-5.39-.27-9.54-5.22-9.25-11,.22-4.51,5.21-8.46,10.68-8.46h.62c5.52.73,8.23,4,8,9.57C681.5,226.58,677.88,230.38,672.31,230.38Z"/><path class="cls-5" d="M673.12,211.37h.55c5.32.71,7.79,3.67,7.58,9.05-.24,5.83-3.66,9.45-8.94,9.45h-.6c-5.11-.26-9.05-5-8.77-10.51.2-4.26,5-8,10.18-8m0-1c-5.8,0-11,4.18-11.18,8.94-.3,6.12,4,11.27,9.72,11.56h.65c5.8,0,9.68-4,9.93-10.41.25-6.19-2.91-9.36-8.47-10.09Z"/><path class="cls-4" d="M595.09,169.32a3.44,3.44,0,0,1-.46,0c-5.24-.48-8.18-3.79-9.25-10.38.19-5.73,3.35-9.09,8.9-9.36l.57,0c4.86,0,7.75,3.15,9.12,9.89.36,1.81-.38,4-2,6C600,167.8,597.33,169.32,595.09,169.32Z"/><path class="cls-5" d="M594.85,150c4.58,0,7.32,3,8.63,9.49.33,1.64-.39,3.74-1.94,5.63-1.82,2.22-4.35,3.67-6.45,3.67l-.42,0c-4.94-.47-7.74-3.6-8.78-9.88.21-5.54,3.12-8.61,8.42-8.87l.54,0m0-1-.59,0c-5.75.28-9.18,3.72-9.38,9.94.92,5.62,3.35,10.21,9.7,10.8a4.36,4.36,0,0,0,.51,0c4.73,0,10.29-6,9.37-10.49-1.05-5.2-3.35-10.3-9.61-10.3Z"/><path class="cls-4" d="M571.54,283.44a10.24,10.24,0,0,1-7.5-3.32,7.13,7.13,0,0,1-2-5.54c.74-7.08,3.53-10.37,8.76-10.37,7.06,0,9.18,5.08,9.71,9.36-.6,6.49-3.19,9.53-8.41,9.85Z"/><path class="cls-5" d="M570.83,263.71l0,1c6.64,0,8.67,4.8,9.19,8.87-.59,6.24-3,9-7.94,9.34l-.56,0a9.73,9.73,0,0,1-7.13-3.16,6.65,6.65,0,0,1-1.84-5.15c.72-6.86,3.27-9.92,8.26-9.92v-1m0,0c-6.77,0-8.69,5.38-9.26,10.81-.52,5,4.51,9.42,10,9.42l.62,0c6.3-.39,8.37-4.64,8.88-10.36-.73-6-4-9.84-10.18-9.85Z"/><path class="cls-4" d="M618.94,256.18c-5.81-.2-9.16-3.69-9.19-9.58,0-5.7,3.09-9.19,8.57-9.56l.39,0a9.58,9.58,0,0,1,6.74,3.47,8.1,8.1,0,0,1,2.31,6.18C627.22,251.07,625.72,256.12,618.94,256.18Z"/><path class="cls-5" d="M618.71,237.52h0a9.11,9.11,0,0,1,6.37,3.3,7.68,7.68,0,0,1,2.19,5.79c-.78,6.32-3.28,9-8.3,9.07-5.52-.18-8.69-3.49-8.72-9.09,0-5.4,2.93-8.7,8.1-9.05l.36,0m0-1-.43,0c-6.17.42-9.06,4.64-9,10.06,0,5.89,3.35,9.87,9.68,10.08,6.79-.05,8.69-4.78,9.33-10,.6-4.85-4.77-10.21-9.55-10.21Z"/><path class="cls-4" d="M519.82,163a7.67,7.67,0,0,1-5.53-2.6,9.46,9.46,0,0,1-2.64-6.88c.24-4.22,1.83-9.25,8-9.25.24,0,.49,0,.75,0,5.77.36,8.36,4.16,8.9,13.06-.53.41-1.12.92-1.73,1.47-1.77,1.56-4,3.51-6.41,4A6.53,6.53,0,0,1,519.82,163Z"/><path class="cls-5" d="M519.64,144.77h0c.23,0,.47,0,.72,0,5.4.34,7.86,3.92,8.41,12.33-.48.39-1,.84-1.54,1.32-1.73,1.53-3.88,3.43-6.18,3.93a5.65,5.65,0,0,1-1.23.13,7.22,7.22,0,0,1-5.17-2.44,9,9,0,0,1-2.5-6.51c.23-4,1.72-8.78,7.49-8.78m0-1c-5.79,0-8.18,4.3-8.49,9.72-.28,5,3.91,10,8.67,10a7,7,0,0,0,1.44-.15c3.55-.77,6.5-4.3,8.54-5.75-.48-8.76-2.91-13.4-9.38-13.81-.27,0-.53,0-.78,0Z"/><path class="cls-4" d="M538.84,199.15q-.54,0-1.14-.06c-6-.55-9-3.63-8.88-9.15.09-5.35,4.23-9.22,9.84-9.22.24,0,.48,0,.72,0,5,.76,7.72,4.3,7.34,9.7C546.45,194.41,544.86,199.15,538.84,199.15Z"/><path class="cls-5" d="M538.66,180.22v1h.65c4.82.76,7.27,4,6.91,9.18-.26,3.76-1.75,8.24-7.38,8.24a10.23,10.23,0,0,1-1.09-.06c-5.68-.52-8.51-3.43-8.43-8.65.09-5.05,4-8.72,9.34-8.72v-1m0,0c-6,0-10.24,4.18-10.34,9.71-.1,6.25,3.69,9.14,9.34,9.66.41,0,.8.06,1.18.06,5.55,0,8-3.93,8.38-9.17.41-5.84-2.63-9.45-7.81-10.24-.25,0-.5,0-.75,0Z"/><path class="cls-4" d="M836.23,234.81a8.81,8.81,0,0,1-6.38-2.51,8.26,8.26,0,0,1-2-6.19c.13-2.93,1.09-9.75,7.22-9.75a10.47,10.47,0,0,1,1.71.16c2.52.46,4.78,2.83,6.59,4.72.64.66,1.24,1.29,1.79,1.77-.37,7.94-3.22,11.8-8.71,11.8Z"/><path class="cls-5" d="M835,216.86h0a8.54,8.54,0,0,1,1.62.16c2.36.43,4.56,2.72,6.32,4.57.58.6,1.13,1.17,1.64,1.63-.53,9.93-4.92,11.09-8.2,11.09h-.17a8.3,8.3,0,0,1-6-2.36,7.76,7.76,0,0,1-1.9-5.82c.12-2.79,1-9.27,6.72-9.27m0-1c-5.31,0-7.49,4.91-7.72,10.23-.26,5.85,3.67,9.14,8.91,9.22h.19c5.72,0,8.88-3.91,9.22-12.53-2.06-1.67-5.09-6.07-8.8-6.75a10.69,10.69,0,0,0-1.8-.17Z"/><path class="cls-4" d="M589.18,211.19l-.7,0c-6.17-.39-9.79-3.91-9.69-9.4.1-5.71,3.34-9.28,8.66-9.57h.65c4.7,0,7.25,2.87,8.24,9.31-.18.66-.33,1.35-.49,2.05C595,207.48,594.15,211.19,589.18,211.19Z"/><path class="cls-5" d="M588.1,192.69h0c4.44,0,6.76,2.63,7.73,8.78-.17.65-.32,1.32-.47,2-1,4.51-1.92,7.25-6.18,7.25l-.67,0c-2.82-.18-9.36-1.41-9.22-8.89.1-5.5,3.08-8.8,8.19-9.08h.62m0-1h-.67c-6,.32-9,4.51-9.14,10.06-.12,6.38,4.36,9.54,10.16,9.91l.73,0c6.36,0,6.47-5.77,7.67-10.16-.83-5.52-2.91-9.84-8.75-9.84Z"/><path class="cls-4" d="M784.3,281.36c-5.4,0-8.92-3.64-9.39-9.75a7.81,7.81,0,0,1,1.85-6.07,8.42,8.42,0,0,1,6.31-2.46h.16a10,10,0,0,1,6.86,2.38c1.74,1.64,2.61,4,2.56,7.14,0,5.49-2.93,8.67-8.14,8.76Z"/><path class="cls-5" d="M783.07,263.58h.16a9.48,9.48,0,0,1,6.51,2.24c1.65,1.54,2.46,3.82,2.41,6.8,0,5.15-2.75,8.16-7.65,8.24h-.2c-5.11,0-8.44-3.47-8.89-9.29a7.28,7.28,0,0,1,1.72-5.69,7.93,7.93,0,0,1,5.94-2.3m0-1c-5.24,0-9.11,3.38-8.66,9.07s3.71,10.21,9.89,10.21h.21c5.43-.09,8.68-3.48,8.64-9.25.1-6.76-4-9.95-9.91-10Z"/><path class="cls-4" d="M484.58,181.1c-7.49-.47-10.89-3.16-11-8.68-.11-5.82,2.93-9.12,8.58-9.28h.33a7.45,7.45,0,0,1,5.74,2.27,8.37,8.37,0,0,1,1.86,6.46c-.25,2.54-2.18,4.95-3.88,7.08C485.61,179.71,485,180.43,484.58,181.1Z"/><path class="cls-5" d="M482.51,163.64h0a6.92,6.92,0,0,1,5.36,2.1,7.86,7.86,0,0,1,1.73,6.08c-.24,2.39-2.12,4.75-3.77,6.82-.55.68-1.07,1.33-1.5,2-8.94-.66-10.18-4.71-10.24-8.18-.08-3.89,1.27-8.57,8.09-8.77h.33m0-1h-.34c-6.31.18-9.18,4.08-9.07,9.79.1,5.44,3.33,8.72,11.75,9.19,1.61-2.52,5.38-5.94,5.76-9.7.46-4.58-2-9.28-8.1-9.28Z"/><path class="cls-4" d="M762.73,81.84c-4.94-.43-7.7-3.52-7.77-8.7-.08-5.69,3.14-9,8.83-9.13H764c5.94,0,8.18,4.72,8.3,8.76C772.47,78.17,769,81.47,762.73,81.84Z"/><path class="cls-5" d="M764,64.51c5.58,0,7.69,4.46,7.8,8.28.15,5.15-3.07,8.19-9.07,8.55-4.69-.42-7.21-3.26-7.28-8.21-.08-5.37,3-8.51,8.34-8.62H764m0-1h-.23c-5.86.12-9.41,3.58-9.32,9.64.08,5.58,3.17,8.76,8.26,9.19,6.65-.37,10.25-3.93,10.09-9.58-.15-5-3.12-9.25-8.8-9.25Z"/><path class="cls-4" d="M554.44,243.92c-5.42,0-8.08-3.37-9.15-11.61.57-.48,1.19-1.11,1.84-1.77,1.81-1.82,4-4.09,6.5-4.51a8,8,0,0,1,1.44-.13c4.9,0,7.23,4.48,7.37,8.92a9.47,9.47,0,0,1-2.22,6.91,7.56,7.56,0,0,1-5.59,2.19Z"/><path class="cls-5" d="M555.07,226.4h0c4.57,0,6.74,4.24,6.87,8.44a9,9,0,0,1-2.08,6.55,7.14,7.14,0,0,1-5.24,2h-.18c-5.05,0-7.56-3.17-8.62-10.91.53-.46,1.08-1,1.67-1.61,1.75-1.78,3.94-4,6.23-4.38a7.87,7.87,0,0,1,1.35-.12m0-1a8.92,8.92,0,0,0-1.52.13c-3.63.62-6.63,4.86-8.79,6.57,1,8.34,3.76,12.32,9.68,12.32h.2c5.89-.09,8.46-4.42,8.3-9.61s-3-9.41-7.87-9.41Z"/><path class="cls-4" d="M790.26,48c-5.12-.61-8-4-7.86-9.4s3-8.45,7.81-8.45l.57,0c5.47.27,8.7,3.8,8.64,9.44C799.36,45.06,796.27,47.89,790.26,48Z"/><path class="cls-5" d="M790.21,30.65l.55,0c5.16.25,8.22,3.6,8.16,8.94-.06,5.12-3,7.77-8.64,7.89-4.88-.6-7.5-3.75-7.38-8.89s2.78-8,7.31-8m0-1c-5.33,0-8.19,3.69-8.31,8.94-.13,5.82,3.06,9.29,8.33,9.91,6.5-.11,9.62-3.36,9.69-8.88.06-5.81-3.27-9.66-9.11-9.95l-.6,0Z"/><path class="cls-4" d="M522,268c-4-.26-8.8-2-8.85-8.87,0-3,.79-5.37,2.34-6.94a7.55,7.55,0,0,1,5.57-2.05,9.33,9.33,0,0,1,6.84,2.52,8.66,8.66,0,0,1,2.3,6.39C530.14,263.06,528.67,267.91,522,268Z"/><path class="cls-5" d="M521.07,250.6a8.84,8.84,0,0,1,6.47,2.37,8.19,8.19,0,0,1,2.16,6c-.08,5.57-2.66,8.42-7.69,8.46-5.51-.37-8.32-3.18-8.36-8.37,0-2.84.74-5.11,2.2-6.58a7,7,0,0,1,5.21-1.91h0m0-1c-5.78,0-8.45,4.09-8.41,9.5,0,6.06,3.72,9,9.33,9.36,6.55,0,8.65-4.46,8.72-9.45.08-5.89-3.86-9.41-9.63-9.41Z"/><path class="cls-4" d="M465,218.3c-3.05-.09-5.51-1.16-7-3a7.11,7.11,0,0,1-1.08-6.15c.78-3.39,4.8-7.61,7.67-8.07A9.51,9.51,0,0,1,466,201a6.49,6.49,0,0,1,4.77,1.92c1.63,1.65,2.47,4.19,2.42,7.35-.37,5.36-3,8.09-7.84,8.09Z"/><path class="cls-5" d="M466,201.45h0a6,6,0,0,1,4.4,1.77c1.51,1.53,2.32,4,2.28,7-.36,5.06-2.83,7.63-7.34,7.63H465c-2.9-.08-5.23-1.09-6.57-2.82a6.65,6.65,0,0,1-1-5.74c.74-3.17,4.61-7.26,7.27-7.68a8.6,8.6,0,0,1,1.32-.11m0-1a9.49,9.49,0,0,0-1.47.12c-3.18.51-7.29,5-8.08,8.44-1.3,5.58,2.35,9.61,8.51,9.79h.39c5.63,0,8-3.62,8.34-8.58.09-6.07-3.06-9.78-7.69-9.78Z"/><path class="cls-4" d="M890.27,98c-4.79,0-7.7-2.87-8.19-8.07.45-6.07,3.2-9.19,8.15-9.19h.15c5.35.07,8.76,3.31,8.9,8.46s-3.11,8.56-8.48,8.79Z"/><path class="cls-5" d="M890.23,80.2v1h.14c5.06.06,8.28,3.12,8.41,8s-2.86,8.06-8,8.28h-.51c-4.47,0-7.19-2.68-7.69-7.54.46-5.87,3-8.72,7.65-8.72v-1m0,0c-5.69,0-8.22,3.92-8.65,9.73.49,5.15,3.37,8.53,8.69,8.53h.55c5.49-.24,9.1-3.66,9-9.3s-4-8.88-9.39-9Z"/><path class="cls-4" d="M864,167.15c-4.48,0-7.48-3.42-7.65-8.71s2.23-8.13,7.35-8.35h.65c5.42,0,8,3.17,8.81,10.95-.53.46-1.11,1.07-1.72,1.71-1.69,1.78-3.8,4-6.06,4.31A9.44,9.44,0,0,1,864,167.15Z"/><path class="cls-5" d="M864.34,149.58v1c4.27,0,7.32,1.76,8.28,10.25-.5.45-1,1-1.56,1.56-1.64,1.72-3.68,3.87-5.77,4.17a10,10,0,0,1-1.31.09c-4.25,0-7-3.15-7.15-8.23s2-7.62,6.88-7.83h.62v-1m0,0h-.67c-5.66.25-8,3.53-7.83,8.87.18,5.6,3.4,9.19,8.15,9.19a10.4,10.4,0,0,0,1.45-.1c3.38-.49,6.23-4.67,8.24-6.31-.82-8.17-3.5-11.66-9.34-11.66Z"/><path class="cls-4" d="M562,139.64c-4.81,0-8.3-1.18-10.1-3.31a6.47,6.47,0,0,1-1.28-5.48c.55-3.22,4.78-7.74,7.82-8.32a7.56,7.56,0,0,1,1.47-.15,6.51,6.51,0,0,1,4.8,2.08,9.68,9.68,0,0,1,2.46,7c-.11,2.32-2.13,4.62-3.75,6.46C562.81,138.57,562.32,139.13,562,139.64Z"/><path class="cls-5" d="M559.86,122.88h0a6,6,0,0,1,4.44,1.93,9.12,9.12,0,0,1,2.32,6.65c-.1,2.14-2.06,4.36-3.63,6.15-.49.56-.93,1.06-1.29,1.52-4.53-.07-7.8-1.15-9.47-3.12a5.94,5.94,0,0,1-1.16-5.07c.51-3.07,4.53-7.37,7.41-7.92a7.43,7.43,0,0,1,1.38-.14m0-1a7.8,7.8,0,0,0-1.56.16c-3.32.64-7.65,5.32-8.22,8.73-.93,5.57,3,9.37,12.12,9.37h0c1.31-1.95,5.25-5.21,5.41-8.64.22-4.73-2.77-9.62-7.76-9.62Z"/><path class="cls-4" d="M649,95.07a6.29,6.29,0,0,1-4.58-1.92A10.06,10.06,0,0,1,641.86,86c.07-3.61,1.4-7.93,7.36-7.93h.48c6.09.23,7.57,3.76,8.32,11.1-.6.47-1.24,1.09-1.92,1.74-1.91,1.81-4.08,3.87-6.37,4.1C649.47,95.05,649.22,95.07,649,95.07Z"/><path class="cls-5" d="M649.22,78.58h.46c5.11.19,7,2.64,7.82,10.38-.56.46-1.14,1-1.75,1.59-1.85,1.77-4,3.76-6.07,4-.24,0-.48,0-.7,0a5.71,5.71,0,0,1-4.22-1.77,9.54,9.54,0,0,1-2.4-6.78c.09-4.93,2.4-7.44,6.86-7.44m0-1c-5.85,0-7.78,4-7.86,8.42-.09,4.79,2.64,9.57,7.62,9.57.26,0,.52,0,.79,0,3.45-.34,6.54-4.45,8.78-6.12-.77-7.78-2.44-11.58-8.83-11.82Z"/><path class="cls-4" d="M482.7,254.48c-5.18,0-7.91-2.63-8.13-7.77-.24-5.52,2.53-8.28,8.7-8.68,4.66,0,7.27,2.75,7.36,7.73.05,3-.66,5.23-2.1,6.7a7.81,7.81,0,0,1-5.79,2Z"/><path class="cls-5" d="M483.28,238.53h0c4.4,0,6.77,2.5,6.85,7.24.05,2.83-.61,5-2,6.34A7.35,7.35,0,0,1,482.7,254c-4.86,0-7.43-2.47-7.63-7.29-.23-5.26,2.3-7.77,8.21-8.16m0-1h0c-6.38.41-9.43,3.33-9.17,9.2.23,5.46,3.28,8.23,8.63,8.25h0c6,0,8.48-3.72,8.39-9.23-.09-5.34-3-8.22-7.85-8.22Z"/><path class="cls-6" d="M123.59,681.19,154.4,555.83h70.16c11.54,0,20.13,3.19,24.84,9.22,4.24,5.44,5.3,13.08,3,22.11l-2,7.87c-2.38,8.73-8.86,15.11-19.24,19l-3.32,1.23,3.19,1.53c6.52,3.12,13.8,9.22,11.46,20.53L239.6,649c-5,19.89-22,32.24-44.39,32.24ZM159.38,658h34.73c9.67,0,15.48-4.57,17.78-14l1.1-4.39c1-3.55.62-6.45-1-8.59-2-2.6-5.84-3.91-11.44-3.91H166.9Zm12.47-50.43H204.2c9.89,0,15.36-3.57,17.23-11.23l.91-3.66c1.2-4.51.93-7.83-.83-10.13-1.92-2.49-5.38-3.65-10.89-3.65H178.81Z"/><path class="cls-2" d="M224.56,557.33c11.06,0,19.24,3,23.65,8.64,4,5.06,4.92,12.26,2.78,20.81l-2,7.83c-2.28,8.37-8.27,14.25-18.31,18L224,615l6.38,3.06c6,2.89,12.76,8.49,10.66,18.82l-2.92,11.67c-4.8,19.19-21.25,31.1-42.94,31.1h-69.7l30.06-122.36h69M169.94,609H204.2c10.55,0,16.66-4,18.68-12.36l.91-3.62c1.33-5,1-8.76-1.09-11.45-2.23-2.9-6.06-4.24-12.08-4.24h-33l-.56,2.29-6.24,25.67-.9,3.71m-12.47,50.43h36.64c10.46,0,16.75-5,19.23-15.11l1.1-4.37c1.08-4,.65-7.37-1.28-9.89-2.32-3-6.45-4.5-12.63-4.5H165.72l-.56,2.29-6.79,27.87-.9,3.71m67.09-105.14H153.22L121.68,682.69h73.53c24.76,0,41.08-14.3,45.85-33.37L244,637.58c2.2-10.63-3.48-18-12.28-22.19,9.9-3.66,17.42-9.9,20.17-20l2-7.88c4.76-19.07-4.59-33.19-29.34-33.19ZM173.76,606,180,580.37h30.63c9.53,0,12.47,3.67,10.27,11.92L220,596c-1.65,6.79-6.42,10.09-15.77,10.09Zm-12.47,50.43,6.78-27.87h32.46c9.54,0,12.84,3.85,11,10.63l-1.11,4.4c-2,8.26-6.78,12.84-16.32,12.84Z"/><polygon class="cls-6" points="253.61 681.19 284.41 555.83 314.52 555.83 289.94 656.14 351.19 656.14 344.96 681.19 253.61 681.19"/><path class="cls-2" d="M312.6,557.33l-23.66,96.59-.91,3.72h61.24l-5.48,22.05H255.52l30.07-122.36h27m3.83-3H283.24L251.69,682.69h94.45l7-28.05H291.85l24.58-100.31Z"/><path class="cls-6" d="M449.34,681.19,448.06,652H399.88l-15.59,29.15H351.45c9.12-16.14,64.4-114,68.25-121,2.42-4.35,2.42-4.35,8.59-4.35H467.9c5.88,0,5.88,0,6,3.69.34,7.15,7.5,107.67,8.5,121.67Zm-36.93-53.84h35.41l-1.95-48.85H438.2Z"/><path class="cls-2" d="M467.9,557.33a31.24,31.24,0,0,1,4.34.18,15.31,15.31,0,0,1,.18,2.09c.33,7,7,101,8.39,120.09h-30l-1.16-26.29-.12-2.86H399l-.85,1.58-14.74,27.57H354c12.07-21.36,63.29-112,67-118.77,1-1.87,1.7-2.93,2.24-3.21.7-.36,2.53-.38,5-.38H467.9m-58,71.52h39.46l-.12-3.12-1.84-45.85-.11-2.88h-10l-.85,1.6-24.2,45.84-2.33,4.41m58-74.52H428.29c-6.6,0-7.16.18-9.91,5.13-4.21,7.7-69.5,123.23-69.5,123.23h36.31l15.59-29.15h45.85l1.28,29.15H484s-8.25-115.53-8.61-123.23c-.19-5-.92-5.13-7.52-5.13Zm-53,71.52L439.11,580h5.31l1.84,45.85Z"/><path class="cls-6" d="M558.3,682.11c-21.43,0-54.3-2.23-62.28-2.8l6.05-23.54h59.16c10,0,15.22-1.6,17.59-10.66l1.47-5.49a6.67,6.67,0,0,0-.42-5.37,6,6,0,0,0-4.24-2.54c-4.17-.91-30.56-5.86-33.56-6.42l-1-.19c-13.41-2.44-22.28-4.06-25.82-9.55-2.31-3.57-2.44-9-.41-17.22l2.93-11.73c5.69-22.94,19.78-31.87,50.26-31.87,21.09,0,47.44,2.16,54.4,2.77l-6,23.57h-57c-7.28,0-8.88.6-11,7.48l-.73,2.38a4.87,4.87,0,0,0,.19,4.09c1.13,1.9,3.67,2.55,6.63,3.14.37.07,35.46,6.8,39.45,7.52,9.32,1.87,14.86,4.61,17.42,8.63s2.61,9.9.1,20.16l-3.67,15.42C602,673.37,588.53,682.11,558.3,682.11Z"/><path class="cls-2" d="M568,556.23c19.54,0,43.62,1.86,52.51,2.61l-5.32,20.73H559.4c-7.84,0-10.12,1-12.4,8.53l-.73,2.37a6.37,6.37,0,0,0,.33,5.32c1.44,2.42,4.43,3.2,7.65,3.84,1.44.28,35.31,6.77,39.43,7.52,8.9,1.79,14.12,4.32,16.44,8s2.32,9.19-.09,19l-3.66,15.37c-4.8,19.2-14.52,31.1-48.07,31.1-20,0-50.12-2-60.38-2.67l5.31-20.67h58c10.35,0,16.45-1.88,19-11.76l1.47-5.5a8.11,8.11,0,0,0-.6-6.56,7.5,7.5,0,0,0-5.18-3.21c-4.25-.92-28.73-5.51-33.63-6.43l-1-.18c-12.56-2.29-21.64-4-24.83-8.89-2.07-3.2-2.14-8.3-.22-16L519.22,587c5.55-22.4,18.78-30.73,48.8-30.73m0-3c-32.46,0-46,10.08-51.71,33L513.37,598c-5.68,22.92,5.32,24.57,28.43,28.79,2.93.55,29.34,5.5,33.55,6.42,3.86.73,4.22,3.3,3.49,6.05l-1.47,5.5c-2,7.71-5.87,9.54-16.14,9.54H500.9l-6.78,26.41s39.42,2.93,64.18,2.93c32.46,0,45.29-10.64,51-33.37L613,634.83c4.4-18,2.38-26.41-18.71-30.62-4-.74-39.42-7.52-39.42-7.52-4.59-.92-6.79-1.84-5.69-5.32l.73-2.38c1.84-6.06,2.76-6.42,9.54-6.42h58.13l6.79-26.41s-31.54-2.93-56.3-2.93Z"/><polygon class="cls-6" points="646.95 681.19 671.71 580.33 631.37 580.33 637.41 555.83 748.02 555.83 741.97 580.33 701.81 580.33 677.05 681.19 646.95 681.19"/><path class="cls-2" d="M746.1,557.33l-5.3,21.5H700.63l-.56,2.29-24.19,98.57h-27l23.85-97.14.91-3.72H633.28l5.31-21.5H746.1m3.83-3H636.24l-6.79,27.5h40.34L645,682.69h33.19L703,581.83h40.16l6.78-27.5Z"/><path class="cls-6" d="M807.51,682.29c-10.7,0-18.88-3.22-23.64-9.32s-5.92-14.58-3.51-24.2l14.67-60c3.93-15.71,18-34.06,44.57-34.06,27.25,0,57.83,1.1,65.57,1.39L899,580.33H841.62c-9.66,0-15.48,4.58-17.78,14l-11.73,47.5c-1.2,4.9-.83,8.49,1.12,11s5.37,3.71,10.42,3.71H860l6.07-23.44-27.9-1.47,5.52-22.22H899.8l-18,65.78a5.92,5.92,0,0,1-5.17,4.58C876.15,679.76,837,682.29,807.51,682.29Z"/><path class="cls-2" d="M839.6,556.23c25.4,0,53.69.95,63.65,1.32l-5.46,21.28H841.62c-10.46,0-16.75,4.95-19.23,15.12l-11.74,47.5c-1.32,5.38-.86,9.39,1.4,12.26s6.06,4.29,11.6,4.29h37.53l.58-2.25,5.32-20.53.92-3.56-3.67-.19-24.24-1.28,4.79-19.32h53l-17.49,63.87a4.41,4.41,0,0,1-3.77,3.49h-.13c-.39,0-39.49,2.56-68.94,2.56-10.22,0-18-3-22.46-8.75s-5.53-13.74-3.23-22.93l14.66-60A43.86,43.86,0,0,1,811.06,566a44.43,44.43,0,0,1,28.54-9.77m0-3c-24.57,0-41.26,16.13-46,35.21l-14.67,60c-4.77,19.07,4,35.39,28.61,35.39,29.89,0,69.13-2.56,69.13-2.56a7.4,7.4,0,0,0,6.61-5.69l18.52-67.67H842.54L836.3,633l27.87,1.46L858.86,655H823.65c-9.54,0-12.11-4.58-10.09-12.83l11.74-47.5c2-8.25,6.78-12.84,16.32-12.84h58.5l7-27.14s-35.75-1.46-67.48-1.46Z"/><path class="cls-6" d="M936.42,681.38c-11.13,0-19.52-3.21-24.26-9.28-4.48-5.74-5.61-13.74-3.25-23.15l22.82-93.12h29.92l-21.18,86.53c-1.2,4.9-.83,8.49,1.12,11s5.37,3.71,10.42,3.71h21.27c9.67,0,15.48-4.57,17.78-14l21.36-87.24h30.29l-22.65,92.4c-5,20.13-22.53,33.15-44.57,33.15Z"/><path class="cls-2" d="M1040.79,557.33l-22.19,90.53a41.32,41.32,0,0,1-14.47,22.67c-7.72,6.12-17.63,9.35-28.64,9.35H936.42c-10.65,0-18.64-3-23.08-8.7-4.18-5.36-5.21-12.92-3-21.88l22.55-92h26.83L939,642c-1.31,5.38-.85,9.39,1.4,12.26s6.06,4.29,11.6,4.29h21.27c10.46,0,16.75-4.94,19.24-15.12l21.08-86.1h27.19m3.83-3h-33.38l-21.63,88.39c-2,8.25-6.79,12.83-16.33,12.83H952c-9.53,0-12.1-4.58-10.08-12.83l21.64-88.39h-33l-23.11,94.25c-4.77,19.08,4.22,34.3,29,34.3h39.07c24.75,0,41.26-15.22,46-34.3l23.11-94.25Z"/><polygon class="cls-6" points="1073.12 681.19 1082.12 644.32 1054.36 555.83 1089.9 555.83 1106.18 608.83 1148.4 555.83 1182.87 555.83 1112.56 643.32 1103.22 681.19 1073.12 681.19"/><path class="cls-2" d="M1179.74,557.33l-68.14,84.79-.42.52-.16.64-9,36.41h-27l8.44-34.61.2-.81-.25-.8-27-86.14h32.39l15.12,49.22,1.67,5.44,3.55-4.45,40-50.21h30.62m6.26-3h-38.32l-40.9,51.34L1091,554.33h-38.69l28.24,90-9.35,38.32h33.19l9.53-38.69L1186,554.33Z"/><path class="cls-6" d="M322.15,522.5l25.13-102.59h-5.35L285.56,520l0,.06s-1.19,2.46-3.25,2.46H245.09a1.7,1.7,0,0,1-1.83-1.84v-.1L236,419.91h-5.14L205.7,522.5H162.37L205.74,346H263.3c.88,0,1.06.44,1.06.81v.09l13.51,110.66h4.24l65.11-110.06,0-.08a2.56,2.56,0,0,1,2.22-1.42h59.39L365.48,522.5Z"/><path class="cls-2" d="M406.94,347.47,364.3,521H324.06l24.22-98.88.91-3.71h-8.14l-.86,1.53-55.91,99.25,0,.08-.05.11s-.85,1.62-1.91,1.62H245.09l-.24,0a1.06,1.06,0,0,1-.09-.33h0v-.19l-7.18-99.26-.21-2.78h-7.7l-.56,2.29L204.52,521H164.28l42.64-173.53h56L276.22,456.4l.32,2.63H283l.87-1.47L348.46,348.3l.07-.06.08-.21a1,1,0,0,1,.86-.56h57.47m3.83-3h-61.3a4.1,4.1,0,0,0-3.59,2.31L281.25,456H279.2L265.86,346.78a2.35,2.35,0,0,0-2.56-2.31H204.57L160.45,524h46.43L232,421.41h2.56l7.19,99.25a3.27,3.27,0,0,0,3.33,3.34h37.19c3.08,0,4.61-3.34,4.61-3.34l55.91-99.25h2.57L320.24,524h46.42l44.11-179.53Z"/><path class="cls-6" d="M584.52,522.5,627.9,346h98.59c16.33,0,28.51,4.54,35.22,13.13,6,7.75,7.56,18.62,4.36,31.43l-2.82,11C759.87,414,750.69,423,736,428.47l-3.32,1.23,3.19,1.53c9.32,4.46,19.72,13.18,16.37,29.37L748.12,477c-7,28.09-31,45.54-62.67,45.54Zm51.58-33.68h47.82c13.38,0,21.09-6.07,24.28-19.09l1.54-6.15c1.29-4.79.85-8.66-1.32-11.5-2.67-3.48-7.89-5.24-15.53-5.24H646.32Zm17.44-70.53H698c13.51,0,21-4.84,23.52-15.25l1.28-5.12c1.63-6.12,1.28-10.6-1.07-13.66-2.55-3.32-7.24-4.87-14.75-4.87H663Z"/><path class="cls-2" d="M726.49,347.47c15.85,0,27.62,4.34,34,12.55,5.76,7.38,7.18,17.8,4.1,30.13l-2.81,11c-3.3,12.1-11.92,20.58-26.36,25.93l-6.64,2.46,6.39,3.06c8.82,4.23,18.67,12.45,15.55,27.66l-4.09,16.35C739.81,504,716.36,521,685.45,521h-99l42.63-173.53h97.42m-74.86,72.32H698c14.12,0,22.29-5.36,25-16.37l1.27-5.09c1.77-6.63,1.33-11.53-1.32-15-2.86-3.73-7.93-5.46-15.94-5.46H661.81l-.56,2.29-8.72,35.91-.9,3.7m-17.44,70.53h49.73c14,0,22.41-6.62,25.73-20.22l1.53-6.13c1.42-5.27.89-9.58-1.57-12.8-3-3.92-8.47-5.83-16.72-5.83H645.14l-.56,2.29-9.49,39-.9,3.71m92.3-145.85H626.72L582.61,524H685.45c34.63,0,57.45-20,64.12-46.68l4.11-16.41c3.07-14.88-4.88-25.14-17.19-31,13.85-5.13,24.37-13.85,28.21-27.95l2.82-11c6.67-26.67-6.41-46.42-41-46.42Zm-71,72.32,8.72-35.9H707c13.33,0,17.44,5.13,14.36,16.67l-1.28,5.13c-2.31,9.49-9,14.1-22.06,14.1ZM638,487.32l9.49-39h45.39c13.34,0,18,5.39,15.39,14.87l-1.54,6.16c-2.82,11.54-9.49,17.95-22.82,17.95Z"/><polygon class="cls-6" points="766.88 522.5 810.25 345.97 853.58 345.97 810.21 522.5 766.88 522.5"/><path class="cls-2" d="M851.67,347.47,809,521H768.79l42.64-173.53h40.24m3.83-3H809.08L765,524h46.42L855.5,344.47Z"/><polygon class="cls-6" points="843.05 522.5 886.42 345.97 929.76 345.97 895.39 486.26 981.04 486.26 972.04 522.5 843.05 522.5"/><path class="cls-2" d="M927.84,347.47,894.39,484l-.91,3.72h85.65L970.87,521H845L887.6,347.47h40.24m3.83-3H885.25L841.13,524H973.22L983,484.76H897.3l34.37-140.29Z"/><polygon class="cls-6" points="992.31 522.5 1035.69 345.97 1168.79 345.97 1160.29 380.93 1070.53 380.93 1061.82 415.22 1138.01 415.22 1129.25 451.2 1053.08 451.2 1044.92 485.23 1134.41 485.23 1125.15 522.5 992.31 522.5"/><path class="cls-2" d="M1166.88,347.47l-7.77,32h-89.74l-.58,2.26-8,31.29-.95,3.74h76.21l-8,33h-76.18l-.55,2.3-7.44,31-.88,3.7h89.47L1124,521H994.23l42.63-173.53h130m3.82-3H1034.51L990.4,524h135.93l10-40.27h-89.51l7.44-31h76.17l9.49-39h-76.17l8-31.29h89.76l9.24-38Z"/><circle class="cls-4" cx="706" cy="58" r="8.5"/><path class="cls-5" d="M706,50a8,8,0,1,1-8,8,8,8,0,0,1,8-8m0-1a9,9,0,1,0,9,9,9,9,0,0,0-9-9Z"/><circle class="cls-4" cx="842" cy="33" r="8.5"/><path class="cls-5" d="M842,25a8,8,0,1,1-8,8,8,8,0,0,1,8-8m0-1a9,9,0,1,0,9,9,9,9,0,0,0-9-9Z"/><circle class="cls-4" cx="887.5" cy="12.5" r="8"/><path class="cls-5" d="M887.5,5a7.5,7.5,0,1,1-7.5,7.5A7.5,7.5,0,0,1,887.5,5m0-1a8.5,8.5,0,1,0,8.5,8.5A8.51,8.51,0,0,0,887.5,4Z"/><circle class="cls-4" cx="924" cy="207" r="8.5"/><path class="cls-5" d="M924,199a8,8,0,1,1-8,8,8,8,0,0,1,8-8m0-1a9,9,0,1,0,9,9,9,9,0,0,0-9-9Z"/><circle class="cls-4" cx="738" cy="316" r="8.5"/><path class="cls-5" d="M738,308a8,8,0,1,1-8,8,8,8,0,0,1,8-8m0-1a9,9,0,1,0,9,9,9,9,0,0,0-9-9Z"/><circle class="cls-4" cx="836" cy="316" r="8.5"/><path class="cls-5" d="M836,308a8,8,0,1,1-8,8,8,8,0,0,1,8-8m0-1a9,9,0,1,0,9,9,9,9,0,0,0-9-9Z"/><circle class="cls-4" cx="501" cy="207" r="7.5"/><path class="cls-5" d="M501,200a7,7,0,1,1-7,7,7,7,0,0,1,7-7m0-1a8,8,0,1,0,8,8,8,8,0,0,0-8-8Z"/></svg>